<mxfile host="Electron" modified="2024-03-28T13:10:04.372Z" agent="Mozilla/5.0 (X11; Linux x86_64) AppleWebKit/537.36 (KHTML, like Gecko) draw.io/24.1.0 Chrome/120.0.6099.109 Electron/28.1.0 Safari/537.36" etag="pYC0LsWkVZF0sjdUnwJt" version="24.1.0" type="device">
  <diagram name="第 1 页" id="R2TKK0wBRkeS44H10evy">
    <mxGraphModel dx="691" dy="397" grid="1" gridSize="5" guides="1" tooltips="1" connect="1" arrows="1" fold="1" page="1" pageScale="1" pageWidth="827" pageHeight="1169" math="1" shadow="0">
      <root>
        <mxCell id="0" />
        <mxCell id="1" parent="0" />
        <mxCell id="fHgwsBmxxACwKIcdnnUg-2" value="" style="rounded=1;whiteSpace=wrap;html=1;fillColor=#CCE5FF;dashed=1;strokeColor=none;fontFamily=宋体;fontSize=10.5;" parent="1" vertex="1">
          <mxGeometry x="120" y="65" width="45" height="190" as="geometry" />
        </mxCell>
        <mxCell id="IiCrrvJQZdERZgWnuMCt-145" value="" style="rounded=1;whiteSpace=wrap;html=1;dashed=1;fillColor=#f8cecc;strokeColor=none;fontFamily=宋体;fontSize=10.5;" parent="1" vertex="1">
          <mxGeometry x="255" y="225" width="158" height="63" as="geometry" />
        </mxCell>
        <mxCell id="IiCrrvJQZdERZgWnuMCt-108" value="" style="rounded=1;whiteSpace=wrap;html=1;fillColor=#CCE5FF;dashed=1;strokeColor=none;fontFamily=宋体;fontSize=10.5;" parent="1" vertex="1">
          <mxGeometry x="280" y="65" width="45" height="150" as="geometry" />
        </mxCell>
        <mxCell id="IiCrrvJQZdERZgWnuMCt-107" value="" style="rounded=1;whiteSpace=wrap;html=1;fillColor=#CCE5FF;dashed=1;strokeColor=none;fontFamily=宋体;fontSize=10.5;" parent="1" vertex="1">
          <mxGeometry x="200" y="65" width="45" height="223" as="geometry" />
        </mxCell>
        <mxCell id="IiCrrvJQZdERZgWnuMCt-1" value="&lt;p style=&quot;line-height: 120%; font-size: 10.5px;&quot;&gt;&lt;font style=&quot;font-size: 10.5px;&quot;&gt;&lt;span style=&quot;font-size: 10.5px;&quot;&gt;&lt;i style=&quot;font-size: 10.5px;&quot;&gt;$$\mathbf{x}_{0}$$&lt;/i&gt;&lt;/span&gt;&lt;/font&gt;&lt;/p&gt;" style="ellipse;whiteSpace=wrap;html=1;aspect=fixed;fillColor=#d5e8d4;strokeColor=none;labelPosition=center;verticalLabelPosition=middle;align=center;verticalAlign=middle;fontColor=default;labelBackgroundColor=none;labelBorderColor=none;spacing=2;fontFamily=宋体;fontSize=10.5;" parent="1" vertex="1">
          <mxGeometry x="50" y="122.5" width="25" height="25" as="geometry" />
        </mxCell>
        <mxCell id="IiCrrvJQZdERZgWnuMCt-11" value="&lt;p style=&quot;line-height: 120%; font-size: 10.5px;&quot;&gt;&lt;font style=&quot;font-size: 10.5px;&quot;&gt;&lt;span style=&quot;font-size: 10.5px;&quot;&gt;&lt;i style=&quot;font-size: 10.5px;&quot;&gt;$$\mathbf{x}_{1}$$&lt;/i&gt;&lt;/span&gt;&lt;/font&gt;&lt;/p&gt;" style="ellipse;whiteSpace=wrap;html=1;aspect=fixed;fillColor=#d5e8d4;strokeColor=none;labelPosition=center;verticalLabelPosition=middle;align=center;verticalAlign=middle;fontColor=default;labelBackgroundColor=none;labelBorderColor=none;spacing=2;fontFamily=宋体;fontSize=10.5;" parent="1" vertex="1">
          <mxGeometry x="50" y="157.5" width="25" height="25" as="geometry" />
        </mxCell>
        <mxCell id="IiCrrvJQZdERZgWnuMCt-13" value="&lt;p style=&quot;line-height: 120%; font-size: 10.5px;&quot;&gt;&lt;font style=&quot;font-size: 10.5px;&quot;&gt;&lt;span style=&quot;font-size: 10.5px;&quot;&gt;&lt;i style=&quot;font-size: 10.5px;&quot;&gt;$$\mathbf{x}_{3}$$&lt;/i&gt;&lt;/span&gt;&lt;/font&gt;&lt;/p&gt;" style="ellipse;whiteSpace=wrap;html=1;aspect=fixed;fillColor=#d5e8d4;strokeColor=none;labelPosition=center;verticalLabelPosition=middle;align=center;verticalAlign=middle;fontColor=default;labelBackgroundColor=none;labelBorderColor=none;spacing=2;fontFamily=宋体;fontSize=10.5;" parent="1" vertex="1">
          <mxGeometry x="50" y="227.5" width="25" height="25" as="geometry" />
        </mxCell>
        <mxCell id="IiCrrvJQZdERZgWnuMCt-15" value="&lt;p style=&quot;line-height: 120%; font-size: 10.5px;&quot;&gt;&lt;font style=&quot;font-size: 10.5px;&quot;&gt;&lt;span style=&quot;font-size: 10.5px;&quot;&gt;&lt;i style=&quot;font-size: 10.5px;&quot;&gt;$$\mathbf{b}$$&lt;/i&gt;&lt;/span&gt;&lt;/font&gt;&lt;/p&gt;" style="ellipse;whiteSpace=wrap;html=1;aspect=fixed;fillColor=#d5e8d4;strokeColor=none;labelPosition=center;verticalLabelPosition=middle;align=center;verticalAlign=middle;fontColor=default;labelBackgroundColor=none;labelBorderColor=none;spacing=2;fontFamily=宋体;fontSize=10.5;" parent="1" vertex="1">
          <mxGeometry x="50" y="85" width="25" height="25" as="geometry" />
        </mxCell>
        <mxCell id="IiCrrvJQZdERZgWnuMCt-16" value="&lt;p style=&quot;line-height: 120%; font-size: 10.5px;&quot;&gt;&lt;font style=&quot;font-size: 10.5px;&quot;&gt;&lt;span style=&quot;font-size: 10.5px;&quot;&gt;&lt;i style=&quot;font-size: 10.5px;&quot;&gt;$$\mathbf{b}^{[2]}$$&lt;/i&gt;&lt;/span&gt;&lt;/font&gt;&lt;/p&gt;" style="ellipse;whiteSpace=wrap;html=1;aspect=fixed;fillColor=#e1d5e7;strokeColor=none;labelPosition=center;verticalLabelPosition=middle;align=center;verticalAlign=middle;labelBackgroundColor=none;labelBorderColor=none;spacing=2;fontFamily=宋体;fontSize=10.5;" parent="1" vertex="1">
          <mxGeometry x="210" y="85" width="25" height="25" as="geometry" />
        </mxCell>
        <mxCell id="IiCrrvJQZdERZgWnuMCt-17" value="&lt;p style=&quot;line-height: 120%; font-size: 10.5px;&quot;&gt;&lt;font style=&quot;font-size: 10.5px;&quot;&gt;&lt;span style=&quot;font-size: 10.5px;&quot;&gt;&lt;i style=&quot;font-size: 10.5px;&quot;&gt;$$\mathbf{a}_{0}^{[2]}$$&lt;/i&gt;&lt;/span&gt;&lt;/font&gt;&lt;/p&gt;" style="ellipse;whiteSpace=wrap;html=1;aspect=fixed;fillColor=#e1d5e7;strokeColor=none;labelPosition=center;verticalLabelPosition=middle;align=center;verticalAlign=middle;labelBackgroundColor=none;labelBorderColor=none;spacing=2;fontFamily=宋体;fontSize=10.5;" parent="1" vertex="1">
          <mxGeometry x="210" y="122.5" width="25" height="25" as="geometry" />
        </mxCell>
        <mxCell id="IiCrrvJQZdERZgWnuMCt-18" value="&lt;p style=&quot;line-height: 120%; font-size: 10.5px;&quot;&gt;&lt;font style=&quot;font-size: 10.5px;&quot;&gt;&lt;span style=&quot;font-size: 10.5px;&quot;&gt;&lt;i style=&quot;font-size: 10.5px;&quot;&gt;$$\mathbf{a}_{1}^{[2]}$$&lt;/i&gt;&lt;/span&gt;&lt;/font&gt;&lt;/p&gt;" style="ellipse;whiteSpace=wrap;html=1;aspect=fixed;fillColor=#e1d5e7;strokeColor=none;labelPosition=center;verticalLabelPosition=middle;align=center;verticalAlign=middle;labelBackgroundColor=none;labelBorderColor=none;spacing=2;fontFamily=宋体;fontSize=10.5;" parent="1" vertex="1">
          <mxGeometry x="210" y="157.5" width="25" height="25" as="geometry" />
        </mxCell>
        <mxCell id="IiCrrvJQZdERZgWnuMCt-19" value="&lt;p style=&quot;line-height: 120%; font-size: 10.5px;&quot;&gt;&lt;font style=&quot;font-size: 10.5px;&quot;&gt;&lt;span style=&quot;font-size: 10.5px;&quot;&gt;&lt;i style=&quot;font-size: 10.5px;&quot;&gt;$$\mathbf{a}_{2}^{[2]}$$&lt;/i&gt;&lt;/span&gt;&lt;/font&gt;&lt;/p&gt;" style="ellipse;whiteSpace=wrap;html=1;aspect=fixed;fillColor=#e1d5e7;strokeColor=none;labelPosition=center;verticalLabelPosition=middle;align=center;verticalAlign=middle;labelBackgroundColor=none;labelBorderColor=none;spacing=2;fontFamily=宋体;fontSize=10.5;" parent="1" vertex="1">
          <mxGeometry x="210" y="192.5" width="25" height="25" as="geometry" />
        </mxCell>
        <mxCell id="IiCrrvJQZdERZgWnuMCt-20" value="&lt;p style=&quot;line-height: 120%; font-size: 10.5px;&quot;&gt;&lt;font style=&quot;font-size: 10.5px;&quot;&gt;&lt;span style=&quot;font-size: 10.5px;&quot;&gt;&lt;i style=&quot;font-size: 10.5px;&quot;&gt;$$\mathbf{a}_{3}^{[2]}$$&lt;/i&gt;&lt;/span&gt;&lt;/font&gt;&lt;/p&gt;" style="ellipse;whiteSpace=wrap;html=1;aspect=fixed;fillColor=#e1d5e7;strokeColor=none;labelPosition=center;verticalLabelPosition=middle;align=center;verticalAlign=middle;labelBackgroundColor=none;labelBorderColor=none;spacing=2;fontFamily=宋体;fontSize=10.5;" parent="1" vertex="1">
          <mxGeometry x="210" y="227.5" width="25" height="25" as="geometry" />
        </mxCell>
        <mxCell id="IiCrrvJQZdERZgWnuMCt-21" value="&lt;p style=&quot;line-height: 120%; font-size: 10.5px;&quot;&gt;&lt;font style=&quot;font-size: 10.5px;&quot;&gt;&lt;span style=&quot;font-size: 10.5px;&quot;&gt;&lt;i style=&quot;font-size: 10.5px;&quot;&gt;$$\mathbf{a}_{4}^{[2]}$$&lt;/i&gt;&lt;/span&gt;&lt;/font&gt;&lt;/p&gt;" style="ellipse;whiteSpace=wrap;html=1;aspect=fixed;fillColor=#e1d5e7;strokeColor=none;labelPosition=center;verticalLabelPosition=middle;align=center;verticalAlign=middle;labelBackgroundColor=none;labelBorderColor=none;spacing=2;fontFamily=宋体;fontSize=10.5;" parent="1" vertex="1">
          <mxGeometry x="210" y="262.5" width="25" height="25" as="geometry" />
        </mxCell>
        <mxCell id="IiCrrvJQZdERZgWnuMCt-22" value="&lt;p style=&quot;line-height: 120%; font-size: 10.5px;&quot;&gt;&lt;font style=&quot;font-size: 10.5px;&quot;&gt;&lt;span style=&quot;font-size: 10.5px;&quot;&gt;&lt;i style=&quot;font-size: 10.5px;&quot;&gt;$$\mathbf{b}^{[3]}$$&lt;/i&gt;&lt;/span&gt;&lt;/font&gt;&lt;/p&gt;" style="ellipse;whiteSpace=wrap;html=1;aspect=fixed;fillColor=#e1d5e7;strokeColor=none;labelPosition=center;verticalLabelPosition=middle;align=center;verticalAlign=middle;labelBackgroundColor=none;labelBorderColor=none;spacing=2;fontFamily=宋体;fontSize=10.5;" parent="1" vertex="1">
          <mxGeometry x="290" y="85" width="25" height="25" as="geometry" />
        </mxCell>
        <mxCell id="IiCrrvJQZdERZgWnuMCt-23" value="&lt;p style=&quot;line-height: 120%; font-size: 10.5px;&quot;&gt;&lt;font style=&quot;font-size: 10.5px;&quot;&gt;&lt;span style=&quot;font-size: 10.5px;&quot;&gt;&lt;i style=&quot;font-size: 10.5px;&quot;&gt;$$\mathbf{a}_{0}^{[3]}$$&lt;/i&gt;&lt;/span&gt;&lt;/font&gt;&lt;/p&gt;" style="ellipse;whiteSpace=wrap;html=1;aspect=fixed;fillColor=#e1d5e7;strokeColor=none;labelPosition=center;verticalLabelPosition=middle;align=center;verticalAlign=middle;labelBackgroundColor=none;labelBorderColor=none;spacing=2;fontFamily=宋体;fontSize=10.5;" parent="1" vertex="1">
          <mxGeometry x="290" y="120" width="25" height="25" as="geometry" />
        </mxCell>
        <mxCell id="IiCrrvJQZdERZgWnuMCt-24" value="&lt;p style=&quot;line-height: 120%; font-size: 10.5px;&quot;&gt;&lt;font style=&quot;font-size: 10.5px;&quot;&gt;&lt;span style=&quot;font-size: 10.5px;&quot;&gt;&lt;i style=&quot;font-size: 10.5px;&quot;&gt;$$\mathbf{a}_{1}^{[3]}$$&lt;/i&gt;&lt;/span&gt;&lt;/font&gt;&lt;/p&gt;" style="ellipse;whiteSpace=wrap;html=1;aspect=fixed;fillColor=#e1d5e7;strokeColor=none;labelPosition=center;verticalLabelPosition=middle;align=center;verticalAlign=middle;labelBackgroundColor=none;labelBorderColor=none;spacing=2;fontFamily=宋体;fontSize=10.5;" parent="1" vertex="1">
          <mxGeometry x="290" y="155" width="25" height="25" as="geometry" />
        </mxCell>
        <mxCell id="IiCrrvJQZdERZgWnuMCt-25" value="&lt;p style=&quot;line-height: 120%; font-size: 10.5px;&quot;&gt;&lt;font style=&quot;font-size: 10.5px;&quot;&gt;&lt;span style=&quot;font-size: 10.5px;&quot;&gt;&lt;i style=&quot;font-size: 10.5px;&quot;&gt;$$\mathbf{a}_{2}^{[3]}$$&lt;/i&gt;&lt;/span&gt;&lt;/font&gt;&lt;/p&gt;" style="ellipse;whiteSpace=wrap;html=1;aspect=fixed;fillColor=#e1d5e7;strokeColor=none;labelPosition=center;verticalLabelPosition=middle;align=center;verticalAlign=middle;labelBackgroundColor=none;labelBorderColor=none;spacing=2;fontFamily=宋体;fontSize=10.5;" parent="1" vertex="1">
          <mxGeometry x="290" y="190" width="25" height="25" as="geometry" />
        </mxCell>
        <mxCell id="IiCrrvJQZdERZgWnuMCt-29" value="&lt;p style=&quot;line-height: 120%; font-size: 10.5px;&quot;&gt;&lt;font style=&quot;font-size: 10.5px;&quot;&gt;&lt;span style=&quot;font-size: 10.5px;&quot;&gt;&lt;i style=&quot;font-size: 10.5px;&quot;&gt;$$\hat{\mathbf{y}}_{0}$$&lt;/i&gt;&lt;/span&gt;&lt;/font&gt;&lt;/p&gt;" style="ellipse;whiteSpace=wrap;html=1;aspect=fixed;fillColor=#ffe6cc;strokeColor=none;labelPosition=center;verticalLabelPosition=middle;align=center;verticalAlign=middle;labelBackgroundColor=none;labelBorderColor=none;spacing=2;fontFamily=宋体;fontSize=10.5;" parent="1" vertex="1">
          <mxGeometry x="360" y="85" width="25" height="25" as="geometry" />
        </mxCell>
        <mxCell id="IiCrrvJQZdERZgWnuMCt-30" value="&lt;p style=&quot;line-height: 120%; font-size: 10.5px;&quot;&gt;&lt;font face=&quot;Times New Roman&quot; style=&quot;font-size: 10.5px;&quot;&gt;&lt;span style=&quot;font-size: 10.5px;&quot;&gt;&lt;i style=&quot;font-size: 10.5px;&quot;&gt;$$\hat{\mathbf{y}}_{1}$$&lt;/i&gt;&lt;/span&gt;&lt;/font&gt;&lt;/p&gt;" style="ellipse;whiteSpace=wrap;html=1;aspect=fixed;fillColor=#ffe6cc;strokeColor=none;labelPosition=center;verticalLabelPosition=middle;align=center;verticalAlign=middle;labelBackgroundColor=none;labelBorderColor=none;spacing=2;fontFamily=宋体;fontSize=10.5;" parent="1" vertex="1">
          <mxGeometry x="360" y="120" width="25" height="25" as="geometry" />
        </mxCell>
        <mxCell id="IiCrrvJQZdERZgWnuMCt-31" value="&lt;p style=&quot;line-height: 120%; font-size: 10.5px;&quot;&gt;&lt;font style=&quot;font-size: 10.5px;&quot;&gt;&lt;span style=&quot;font-size: 10.5px;&quot;&gt;&lt;i style=&quot;font-size: 10.5px;&quot;&gt;$$\hat{\mathbf{y}}_{2}$$&lt;/i&gt;&lt;/span&gt;&lt;/font&gt;&lt;/p&gt;" style="ellipse;whiteSpace=wrap;html=1;aspect=fixed;fillColor=#ffe6cc;strokeColor=none;labelPosition=center;verticalLabelPosition=middle;align=center;verticalAlign=middle;labelBackgroundColor=none;labelBorderColor=none;spacing=2;fontFamily=宋体;fontSize=10.5;" parent="1" vertex="1">
          <mxGeometry x="360" y="155" width="25" height="25" as="geometry" />
        </mxCell>
        <mxCell id="IiCrrvJQZdERZgWnuMCt-32" value="" style="endArrow=classicThin;html=1;rounded=0;exitX=1;exitY=0.5;exitDx=0;exitDy=0;entryX=0;entryY=0.5;entryDx=0;entryDy=0;strokeWidth=1;endFill=1;fontFamily=宋体;fontSize=10.5;" parent="1" source="fHgwsBmxxACwKIcdnnUg-3" target="IiCrrvJQZdERZgWnuMCt-18" edge="1">
          <mxGeometry width="50" height="50" relative="1" as="geometry">
            <mxPoint x="-69.62500000000006" y="56.25" as="sourcePoint" />
            <mxPoint x="30.549999999999102" y="56" as="targetPoint" />
          </mxGeometry>
        </mxCell>
        <mxCell id="IiCrrvJQZdERZgWnuMCt-37" value="" style="endArrow=classicThin;html=1;rounded=0;exitX=1;exitY=0.5;exitDx=0;exitDy=0;entryX=0;entryY=0.5;entryDx=0;entryDy=0;strokeWidth=1;endFill=1;fontFamily=宋体;fontSize=10.5;" parent="1" source="fHgwsBmxxACwKIcdnnUg-3" target="IiCrrvJQZdERZgWnuMCt-19" edge="1">
          <mxGeometry width="50" height="50" relative="1" as="geometry">
            <mxPoint x="-69.45000000000101" y="56" as="sourcePoint" />
            <mxPoint x="30.549999999999102" y="93.5" as="targetPoint" />
          </mxGeometry>
        </mxCell>
        <mxCell id="IiCrrvJQZdERZgWnuMCt-38" value="" style="endArrow=classicThin;html=1;rounded=0;exitX=1;exitY=0.5;exitDx=0;exitDy=0;entryX=0;entryY=0.5;entryDx=0;entryDy=0;strokeWidth=1;endFill=1;fontFamily=宋体;fontSize=10.5;" parent="1" source="fHgwsBmxxACwKIcdnnUg-3" target="IiCrrvJQZdERZgWnuMCt-20" edge="1">
          <mxGeometry width="50" height="50" relative="1" as="geometry">
            <mxPoint x="-69.45000000000101" y="56" as="sourcePoint" />
            <mxPoint x="30.549999999999102" y="128.5" as="targetPoint" />
          </mxGeometry>
        </mxCell>
        <mxCell id="IiCrrvJQZdERZgWnuMCt-39" value="" style="endArrow=classicThin;html=1;rounded=0;exitX=1;exitY=0.5;exitDx=0;exitDy=0;strokeWidth=1;entryX=0;entryY=0.5;entryDx=0;entryDy=0;endFill=1;fontFamily=宋体;fontSize=10.5;" parent="1" source="fHgwsBmxxACwKIcdnnUg-4" target="IiCrrvJQZdERZgWnuMCt-16" edge="1">
          <mxGeometry width="50" height="50" relative="1" as="geometry">
            <mxPoint x="-69.82499999999999" y="56.375" as="sourcePoint" />
            <mxPoint x="30.549999999999102" y="163.5" as="targetPoint" />
          </mxGeometry>
        </mxCell>
        <mxCell id="IiCrrvJQZdERZgWnuMCt-40" value="" style="endArrow=classicThin;html=1;rounded=0;exitX=1;exitY=0.5;exitDx=0;exitDy=0;entryX=0;entryY=0.5;entryDx=0;entryDy=0;strokeWidth=1;endFill=1;fontFamily=宋体;fontSize=10.5;" parent="1" source="fHgwsBmxxACwKIcdnnUg-4" target="IiCrrvJQZdERZgWnuMCt-17" edge="1">
          <mxGeometry width="50" height="50" relative="1" as="geometry">
            <mxPoint x="-69.80000000000001" y="56.224999999999966" as="sourcePoint" />
            <mxPoint x="30.549999999999102" y="198.5" as="targetPoint" />
          </mxGeometry>
        </mxCell>
        <mxCell id="IiCrrvJQZdERZgWnuMCt-41" value="" style="endArrow=classicThin;html=1;rounded=0;exitX=1;exitY=0.5;exitDx=0;exitDy=0;entryX=0;entryY=0.5;entryDx=0;entryDy=0;strokeWidth=1;endFill=1;fontFamily=宋体;fontSize=10.5;" parent="1" source="fHgwsBmxxACwKIcdnnUg-4" target="IiCrrvJQZdERZgWnuMCt-18" edge="1">
          <mxGeometry width="50" height="50" relative="1" as="geometry">
            <mxPoint x="-69.5499999999999" y="56.27499999999998" as="sourcePoint" />
            <mxPoint x="30.549999999999102" y="233.49999999999997" as="targetPoint" />
          </mxGeometry>
        </mxCell>
        <mxCell id="IiCrrvJQZdERZgWnuMCt-42" value="" style="endArrow=classicThin;html=1;rounded=0;exitX=1;exitY=0.5;exitDx=0;exitDy=0;entryX=0;entryY=0.5;entryDx=0;entryDy=0;strokeWidth=1;endFill=1;fontFamily=宋体;fontSize=10.5;" parent="1" source="fHgwsBmxxACwKIcdnnUg-3" target="IiCrrvJQZdERZgWnuMCt-21" edge="1">
          <mxGeometry width="50" height="50" relative="1" as="geometry">
            <mxPoint x="-69.45000000000101" y="91" as="sourcePoint" />
            <mxPoint x="31.375000000000057" y="55.57499999999999" as="targetPoint" />
          </mxGeometry>
        </mxCell>
        <mxCell id="IiCrrvJQZdERZgWnuMCt-43" value="" style="endArrow=classicThin;html=1;rounded=0;exitX=1;exitY=0.5;exitDx=0;exitDy=0;entryX=0;entryY=0.5;entryDx=0;entryDy=0;strokeWidth=1;endFill=1;fontFamily=宋体;fontSize=10.5;" parent="1" source="fHgwsBmxxACwKIcdnnUg-4" target="IiCrrvJQZdERZgWnuMCt-21" edge="1">
          <mxGeometry width="50" height="50" relative="1" as="geometry">
            <mxPoint x="-69.45000000000101" y="91" as="sourcePoint" />
            <mxPoint x="30.549999999999102" y="93.5" as="targetPoint" />
          </mxGeometry>
        </mxCell>
        <mxCell id="IiCrrvJQZdERZgWnuMCt-44" value="" style="endArrow=classicThin;html=1;rounded=0;exitX=1;exitY=0.5;exitDx=0;exitDy=0;entryX=0;entryY=0.5;entryDx=0;entryDy=0;strokeWidth=1;endFill=1;fontFamily=宋体;fontSize=10.5;" parent="1" source="fHgwsBmxxACwKIcdnnUg-5" target="IiCrrvJQZdERZgWnuMCt-18" edge="1">
          <mxGeometry width="50" height="50" relative="1" as="geometry">
            <mxPoint x="-69.45000000000101" y="91" as="sourcePoint" />
            <mxPoint x="30.549999999999102" y="128.5" as="targetPoint" />
          </mxGeometry>
        </mxCell>
        <mxCell id="IiCrrvJQZdERZgWnuMCt-45" value="" style="endArrow=classicThin;html=1;rounded=0;exitX=1;exitY=0.5;exitDx=0;exitDy=0;entryX=0;entryY=0.5;entryDx=0;entryDy=0;strokeWidth=1;endFill=1;fontFamily=宋体;fontSize=10.5;" parent="1" source="fHgwsBmxxACwKIcdnnUg-5" target="IiCrrvJQZdERZgWnuMCt-19" edge="1">
          <mxGeometry width="50" height="50" relative="1" as="geometry">
            <mxPoint x="-69.45000000000101" y="91" as="sourcePoint" />
            <mxPoint x="30.549999999999102" y="163.5" as="targetPoint" />
          </mxGeometry>
        </mxCell>
        <mxCell id="IiCrrvJQZdERZgWnuMCt-46" value="" style="endArrow=classicThin;html=1;rounded=0;exitX=1;exitY=0.5;exitDx=0;exitDy=0;entryX=0;entryY=0.5;entryDx=0;entryDy=0;strokeWidth=1;endFill=1;fontFamily=宋体;fontSize=10.5;" parent="1" source="fHgwsBmxxACwKIcdnnUg-5" target="IiCrrvJQZdERZgWnuMCt-20" edge="1">
          <mxGeometry width="50" height="50" relative="1" as="geometry">
            <mxPoint x="-69.45000000000101" y="91" as="sourcePoint" />
            <mxPoint x="30.549999999999102" y="198.5" as="targetPoint" />
          </mxGeometry>
        </mxCell>
        <mxCell id="IiCrrvJQZdERZgWnuMCt-47" value="" style="endArrow=classicThin;html=1;rounded=0;exitX=1;exitY=0.5;exitDx=0;exitDy=0;entryX=0;entryY=0.5;entryDx=0;entryDy=0;strokeWidth=1;endFill=1;fontFamily=宋体;fontSize=10.5;" parent="1" source="fHgwsBmxxACwKIcdnnUg-5" target="IiCrrvJQZdERZgWnuMCt-21" edge="1">
          <mxGeometry width="50" height="50" relative="1" as="geometry">
            <mxPoint x="-70.00000000000006" y="90.625" as="sourcePoint" />
            <mxPoint x="30.549999999999102" y="233.49999999999997" as="targetPoint" />
          </mxGeometry>
        </mxCell>
        <mxCell id="IiCrrvJQZdERZgWnuMCt-48" value="" style="endArrow=classicThin;html=1;rounded=0;exitX=1;exitY=0.5;exitDx=0;exitDy=0;entryX=0;entryY=0.5;entryDx=0;entryDy=0;strokeWidth=1;endFill=1;fontFamily=宋体;fontSize=10.5;" parent="1" source="fHgwsBmxxACwKIcdnnUg-4" target="IiCrrvJQZdERZgWnuMCt-19" edge="1">
          <mxGeometry width="50" height="50" relative="1" as="geometry">
            <mxPoint x="-69.45000000000101" y="126" as="sourcePoint" />
            <mxPoint x="30.549999999999102" y="56" as="targetPoint" />
          </mxGeometry>
        </mxCell>
        <mxCell id="IiCrrvJQZdERZgWnuMCt-49" value="" style="endArrow=classicThin;html=1;rounded=0;exitX=1;exitY=0.5;exitDx=0;exitDy=0;entryX=0;entryY=0.5;entryDx=0;entryDy=0;strokeWidth=1;endFill=1;fontFamily=宋体;fontSize=10.5;" parent="1" source="fHgwsBmxxACwKIcdnnUg-5" target="IiCrrvJQZdERZgWnuMCt-17" edge="1">
          <mxGeometry width="50" height="50" relative="1" as="geometry">
            <mxPoint x="-69.45000000000101" y="126" as="sourcePoint" />
            <mxPoint x="30.549999999999102" y="93.5" as="targetPoint" />
          </mxGeometry>
        </mxCell>
        <mxCell id="IiCrrvJQZdERZgWnuMCt-50" value="" style="endArrow=classicThin;html=1;rounded=0;exitX=1;exitY=0.5;exitDx=0;exitDy=0;entryX=0;entryY=0.5;entryDx=0;entryDy=0;strokeWidth=1;endFill=1;fontFamily=宋体;fontSize=10.5;" parent="1" source="fHgwsBmxxACwKIcdnnUg-6" target="IiCrrvJQZdERZgWnuMCt-16" edge="1">
          <mxGeometry width="50" height="50" relative="1" as="geometry">
            <mxPoint x="-69.45000000000101" y="126" as="sourcePoint" />
            <mxPoint x="30.549999999999102" y="128.5" as="targetPoint" />
          </mxGeometry>
        </mxCell>
        <mxCell id="IiCrrvJQZdERZgWnuMCt-51" value="" style="endArrow=classicThin;html=1;rounded=0;exitX=1;exitY=0.5;exitDx=0;exitDy=0;entryX=0;entryY=0.5;entryDx=0;entryDy=0;strokeWidth=1;endFill=1;fontFamily=宋体;fontSize=10.5;" parent="1" source="fHgwsBmxxACwKIcdnnUg-6" target="IiCrrvJQZdERZgWnuMCt-19" edge="1">
          <mxGeometry width="50" height="50" relative="1" as="geometry">
            <mxPoint x="-69.45000000000101" y="126" as="sourcePoint" />
            <mxPoint x="30.549999999999102" y="163.5" as="targetPoint" />
          </mxGeometry>
        </mxCell>
        <mxCell id="IiCrrvJQZdERZgWnuMCt-52" value="" style="endArrow=classicThin;html=1;rounded=0;exitX=1;exitY=0.5;exitDx=0;exitDy=0;strokeWidth=1;endFill=1;entryX=0;entryY=0.5;entryDx=0;entryDy=0;fontFamily=宋体;fontSize=10.5;" parent="1" source="fHgwsBmxxACwKIcdnnUg-6" target="IiCrrvJQZdERZgWnuMCt-20" edge="1">
          <mxGeometry width="50" height="50" relative="1" as="geometry">
            <mxPoint x="-69.45000000000101" y="126" as="sourcePoint" />
            <mxPoint x="170" y="290" as="targetPoint" />
          </mxGeometry>
        </mxCell>
        <mxCell id="IiCrrvJQZdERZgWnuMCt-53" value="" style="endArrow=classicThin;html=1;rounded=0;exitX=1;exitY=0.5;exitDx=0;exitDy=0;entryX=0;entryY=0.5;entryDx=0;entryDy=0;strokeWidth=1;endFill=1;fontFamily=宋体;fontSize=10.5;" parent="1" source="fHgwsBmxxACwKIcdnnUg-6" target="IiCrrvJQZdERZgWnuMCt-21" edge="1">
          <mxGeometry width="50" height="50" relative="1" as="geometry">
            <mxPoint x="-69.45000000000101" y="126" as="sourcePoint" />
            <mxPoint x="30.549999999999102" y="233.49999999999997" as="targetPoint" />
          </mxGeometry>
        </mxCell>
        <mxCell id="IiCrrvJQZdERZgWnuMCt-54" value="" style="endArrow=classicThin;html=1;rounded=0;exitX=1;exitY=0.5;exitDx=0;exitDy=0;entryX=0;entryY=0.5;entryDx=0;entryDy=0;strokeWidth=1;endFill=1;fontFamily=宋体;fontSize=10.5;" parent="1" source="fHgwsBmxxACwKIcdnnUg-4" target="IiCrrvJQZdERZgWnuMCt-20" edge="1">
          <mxGeometry width="50" height="50" relative="1" as="geometry">
            <mxPoint x="-69.45000000000101" y="161" as="sourcePoint" />
            <mxPoint x="30.549999999999102" y="56" as="targetPoint" />
          </mxGeometry>
        </mxCell>
        <mxCell id="IiCrrvJQZdERZgWnuMCt-55" value="" style="endArrow=classicThin;html=1;rounded=0;exitX=1;exitY=0.5;exitDx=0;exitDy=0;entryX=0;entryY=0.5;entryDx=0;entryDy=0;strokeWidth=1;endFill=1;fontFamily=宋体;fontSize=10.5;" parent="1" source="fHgwsBmxxACwKIcdnnUg-6" target="IiCrrvJQZdERZgWnuMCt-17" edge="1">
          <mxGeometry width="50" height="50" relative="1" as="geometry">
            <mxPoint x="-69.45000000000101" y="161" as="sourcePoint" />
            <mxPoint x="30.549999999999102" y="93.5" as="targetPoint" />
          </mxGeometry>
        </mxCell>
        <mxCell id="IiCrrvJQZdERZgWnuMCt-56" value="" style="endArrow=classicThin;html=1;rounded=0;exitX=1;exitY=0.5;exitDx=0;exitDy=0;entryX=0;entryY=0.5;entryDx=0;entryDy=0;strokeWidth=1;endFill=1;fontFamily=宋体;fontSize=10.5;" parent="1" source="fHgwsBmxxACwKIcdnnUg-7" target="IiCrrvJQZdERZgWnuMCt-16" edge="1">
          <mxGeometry width="50" height="50" relative="1" as="geometry">
            <mxPoint x="-69.45000000000101" y="161" as="sourcePoint" />
            <mxPoint x="30.549999999999102" y="128.5" as="targetPoint" />
          </mxGeometry>
        </mxCell>
        <mxCell id="IiCrrvJQZdERZgWnuMCt-57" value="" style="endArrow=classicThin;html=1;rounded=0;exitX=1;exitY=0.5;exitDx=0;exitDy=0;entryX=0;entryY=0.5;entryDx=0;entryDy=0;strokeWidth=1;endFill=1;fontFamily=宋体;fontSize=10.5;" parent="1" source="fHgwsBmxxACwKIcdnnUg-7" target="IiCrrvJQZdERZgWnuMCt-18" edge="1">
          <mxGeometry width="50" height="50" relative="1" as="geometry">
            <mxPoint x="-69.45000000000101" y="161" as="sourcePoint" />
            <mxPoint x="30.549999999999102" y="163.5" as="targetPoint" />
          </mxGeometry>
        </mxCell>
        <mxCell id="IiCrrvJQZdERZgWnuMCt-58" value="" style="endArrow=classicThin;html=1;rounded=0;exitX=1;exitY=0.5;exitDx=0;exitDy=0;entryX=0;entryY=0.5;entryDx=0;entryDy=0;strokeWidth=1;endFill=1;fontFamily=宋体;fontSize=10.5;" parent="1" source="fHgwsBmxxACwKIcdnnUg-7" target="IiCrrvJQZdERZgWnuMCt-20" edge="1">
          <mxGeometry width="50" height="50" relative="1" as="geometry">
            <mxPoint x="-69.45000000000101" y="161" as="sourcePoint" />
            <mxPoint x="30.549999999999102" y="198.5" as="targetPoint" />
          </mxGeometry>
        </mxCell>
        <mxCell id="IiCrrvJQZdERZgWnuMCt-59" value="" style="endArrow=classicThin;html=1;rounded=0;exitX=1;exitY=0.5;exitDx=0;exitDy=0;entryX=0;entryY=0.5;entryDx=0;entryDy=0;strokeWidth=1;endFill=1;fontFamily=宋体;fontSize=10.5;" parent="1" source="fHgwsBmxxACwKIcdnnUg-3" target="IiCrrvJQZdERZgWnuMCt-17" edge="1">
          <mxGeometry width="50" height="50" relative="1" as="geometry">
            <mxPoint x="85.54999999999899" y="-29.569999999999993" as="sourcePoint" />
            <mxPoint x="185.5499999999991" y="42.92999999999998" as="targetPoint" />
          </mxGeometry>
        </mxCell>
        <mxCell id="IiCrrvJQZdERZgWnuMCt-60" value="" style="endArrow=classicThin;html=1;rounded=0;exitX=1;exitY=0.5;exitDx=0;exitDy=0;entryX=0;entryY=0.5;entryDx=0;entryDy=0;strokeWidth=1;endFill=1;fontFamily=宋体;fontSize=10.5;" parent="1" source="fHgwsBmxxACwKIcdnnUg-3" target="IiCrrvJQZdERZgWnuMCt-16" edge="1">
          <mxGeometry width="50" height="50" relative="1" as="geometry">
            <mxPoint x="85.54999999999899" y="5.430000000000007" as="sourcePoint" />
            <mxPoint x="185.5499999999991" y="42.92999999999998" as="targetPoint" />
          </mxGeometry>
        </mxCell>
        <mxCell id="IiCrrvJQZdERZgWnuMCt-61" value="" style="endArrow=classicThin;html=1;rounded=0;exitX=1;exitY=0.5;exitDx=0;exitDy=0;entryX=0;entryY=0.5;entryDx=0;entryDy=0;strokeWidth=1;endFill=1;fontFamily=宋体;fontSize=10.5;" parent="1" source="fHgwsBmxxACwKIcdnnUg-7" target="IiCrrvJQZdERZgWnuMCt-21" edge="1">
          <mxGeometry width="50" height="50" relative="1" as="geometry">
            <mxPoint x="-69.45000000000101" y="196" as="sourcePoint" />
            <mxPoint x="30.549999999999102" y="198.5" as="targetPoint" />
          </mxGeometry>
        </mxCell>
        <mxCell id="IiCrrvJQZdERZgWnuMCt-62" value="" style="endArrow=classicThin;html=1;rounded=0;exitX=1;exitY=0.5;exitDx=0;exitDy=0;entryX=0;entryY=0.5;entryDx=0;entryDy=0;strokeWidth=1;endFill=1;fontFamily=宋体;fontSize=10.5;" parent="1" source="fHgwsBmxxACwKIcdnnUg-7" target="IiCrrvJQZdERZgWnuMCt-19" edge="1">
          <mxGeometry width="50" height="50" relative="1" as="geometry">
            <mxPoint x="-69.45000000000101" y="196" as="sourcePoint" />
            <mxPoint x="30.549999999999102" y="163.5" as="targetPoint" />
          </mxGeometry>
        </mxCell>
        <mxCell id="IiCrrvJQZdERZgWnuMCt-63" value="" style="endArrow=classicThin;html=1;rounded=0;exitX=1;exitY=0.5;exitDx=0;exitDy=0;entryX=0;entryY=0.5;entryDx=0;entryDy=0;strokeWidth=1;endFill=1;fontFamily=宋体;fontSize=10.5;" parent="1" source="fHgwsBmxxACwKIcdnnUg-7" target="IiCrrvJQZdERZgWnuMCt-17" edge="1">
          <mxGeometry width="50" height="50" relative="1" as="geometry">
            <mxPoint x="-69.45000000000101" y="196" as="sourcePoint" />
            <mxPoint x="30.549999999999102" y="128.5" as="targetPoint" />
          </mxGeometry>
        </mxCell>
        <mxCell id="IiCrrvJQZdERZgWnuMCt-64" value="" style="endArrow=classicThin;html=1;rounded=0;exitX=1;exitY=0.5;exitDx=0;exitDy=0;entryX=0;entryY=0.5;entryDx=0;entryDy=0;strokeWidth=1;endFill=1;fontFamily=宋体;fontSize=10.5;" parent="1" source="fHgwsBmxxACwKIcdnnUg-6" target="IiCrrvJQZdERZgWnuMCt-18" edge="1">
          <mxGeometry width="50" height="50" relative="1" as="geometry">
            <mxPoint x="-69.45000000000101" y="196" as="sourcePoint" />
            <mxPoint x="30.549999999999102" y="93.5" as="targetPoint" />
          </mxGeometry>
        </mxCell>
        <mxCell id="IiCrrvJQZdERZgWnuMCt-65" value="" style="endArrow=classicThin;html=1;rounded=0;exitX=1;exitY=0.5;exitDx=0;exitDy=0;entryX=0;entryY=0.5;entryDx=0;entryDy=0;strokeWidth=1;endFill=1;fontFamily=宋体;fontSize=10.5;" parent="1" source="fHgwsBmxxACwKIcdnnUg-5" target="IiCrrvJQZdERZgWnuMCt-16" edge="1">
          <mxGeometry width="50" height="50" relative="1" as="geometry">
            <mxPoint x="-69.45000000000101" y="196" as="sourcePoint" />
            <mxPoint x="30.549999999999102" y="56" as="targetPoint" />
          </mxGeometry>
        </mxCell>
        <mxCell id="IiCrrvJQZdERZgWnuMCt-66" value="" style="endArrow=classicThin;html=1;rounded=0;exitX=1;exitY=0.5;exitDx=0;exitDy=0;entryX=0;entryY=0.5;entryDx=0;entryDy=0;strokeWidth=1;endFill=1;fontFamily=宋体;fontSize=10.5;" parent="1" source="IiCrrvJQZdERZgWnuMCt-16" target="IiCrrvJQZdERZgWnuMCt-22" edge="1">
          <mxGeometry width="50" height="50" relative="1" as="geometry">
            <mxPoint x="160" y="123" as="sourcePoint" />
            <mxPoint x="215" y="103" as="targetPoint" />
          </mxGeometry>
        </mxCell>
        <mxCell id="IiCrrvJQZdERZgWnuMCt-67" value="" style="endArrow=classicThin;html=1;rounded=0;exitX=1;exitY=0.5;exitDx=0;exitDy=0;entryX=0;entryY=0.5;entryDx=0;entryDy=0;strokeWidth=1;endFill=1;fontFamily=宋体;fontSize=10.5;" parent="1" source="IiCrrvJQZdERZgWnuMCt-16" target="IiCrrvJQZdERZgWnuMCt-23" edge="1">
          <mxGeometry width="50" height="50" relative="1" as="geometry">
            <mxPoint x="240" y="103" as="sourcePoint" />
            <mxPoint x="295" y="148" as="targetPoint" />
          </mxGeometry>
        </mxCell>
        <mxCell id="IiCrrvJQZdERZgWnuMCt-68" value="" style="endArrow=classicThin;html=1;rounded=0;exitX=1;exitY=0.5;exitDx=0;exitDy=0;entryX=0;entryY=0.5;entryDx=0;entryDy=0;strokeWidth=1;endFill=1;fontFamily=宋体;fontSize=10.5;" parent="1" source="IiCrrvJQZdERZgWnuMCt-16" target="IiCrrvJQZdERZgWnuMCt-24" edge="1">
          <mxGeometry width="50" height="50" relative="1" as="geometry">
            <mxPoint x="240" y="103" as="sourcePoint" />
            <mxPoint x="295" y="183" as="targetPoint" />
          </mxGeometry>
        </mxCell>
        <mxCell id="IiCrrvJQZdERZgWnuMCt-69" value="" style="endArrow=classicThin;html=1;rounded=0;exitX=1;exitY=0.5;exitDx=0;exitDy=0;entryX=0;entryY=0.5;entryDx=0;entryDy=0;strokeWidth=1;endFill=1;fontFamily=宋体;fontSize=10.5;" parent="1" source="IiCrrvJQZdERZgWnuMCt-16" target="IiCrrvJQZdERZgWnuMCt-25" edge="1">
          <mxGeometry width="50" height="50" relative="1" as="geometry">
            <mxPoint x="240" y="103" as="sourcePoint" />
            <mxPoint x="295" y="218" as="targetPoint" />
          </mxGeometry>
        </mxCell>
        <mxCell id="IiCrrvJQZdERZgWnuMCt-70" value="" style="endArrow=classicThin;html=1;rounded=0;exitX=1;exitY=0.5;exitDx=0;exitDy=0;entryX=0;entryY=0.5;entryDx=0;entryDy=0;strokeWidth=1;endFill=1;fontFamily=宋体;fontSize=10.5;" parent="1" source="IiCrrvJQZdERZgWnuMCt-17" target="IiCrrvJQZdERZgWnuMCt-22" edge="1">
          <mxGeometry width="50" height="50" relative="1" as="geometry">
            <mxPoint x="240" y="103" as="sourcePoint" />
            <mxPoint x="295" y="148" as="targetPoint" />
          </mxGeometry>
        </mxCell>
        <mxCell id="IiCrrvJQZdERZgWnuMCt-71" value="" style="endArrow=classicThin;html=1;rounded=0;exitX=1;exitY=0.5;exitDx=0;exitDy=0;entryX=0;entryY=0.5;entryDx=0;entryDy=0;strokeWidth=1;endFill=1;fontFamily=宋体;fontSize=10.5;" parent="1" source="IiCrrvJQZdERZgWnuMCt-17" target="IiCrrvJQZdERZgWnuMCt-23" edge="1">
          <mxGeometry width="50" height="50" relative="1" as="geometry">
            <mxPoint x="240" y="140" as="sourcePoint" />
            <mxPoint x="295" y="148" as="targetPoint" />
          </mxGeometry>
        </mxCell>
        <mxCell id="IiCrrvJQZdERZgWnuMCt-72" value="" style="endArrow=classicThin;html=1;rounded=0;exitX=1;exitY=0.5;exitDx=0;exitDy=0;entryX=0;entryY=0.5;entryDx=0;entryDy=0;strokeWidth=1;endFill=1;fontFamily=宋体;fontSize=10.5;" parent="1" source="IiCrrvJQZdERZgWnuMCt-17" target="IiCrrvJQZdERZgWnuMCt-24" edge="1">
          <mxGeometry width="50" height="50" relative="1" as="geometry">
            <mxPoint x="240" y="140" as="sourcePoint" />
            <mxPoint x="295" y="183" as="targetPoint" />
          </mxGeometry>
        </mxCell>
        <mxCell id="IiCrrvJQZdERZgWnuMCt-73" value="" style="endArrow=classicThin;html=1;rounded=0;exitX=1.011;exitY=0.551;exitDx=0;exitDy=0;entryX=0;entryY=0.5;entryDx=0;entryDy=0;strokeWidth=1;exitPerimeter=0;endFill=1;fontFamily=宋体;fontSize=10.5;" parent="1" source="IiCrrvJQZdERZgWnuMCt-17" target="IiCrrvJQZdERZgWnuMCt-25" edge="1">
          <mxGeometry width="50" height="50" relative="1" as="geometry">
            <mxPoint x="240" y="140" as="sourcePoint" />
            <mxPoint x="295" y="218" as="targetPoint" />
          </mxGeometry>
        </mxCell>
        <mxCell id="IiCrrvJQZdERZgWnuMCt-74" value="" style="endArrow=classicThin;html=1;rounded=0;exitX=1;exitY=0.5;exitDx=0;exitDy=0;entryX=0;entryY=0.5;entryDx=0;entryDy=0;strokeWidth=1;endFill=1;fontFamily=宋体;fontSize=10.5;" parent="1" source="IiCrrvJQZdERZgWnuMCt-18" target="IiCrrvJQZdERZgWnuMCt-25" edge="1">
          <mxGeometry width="50" height="50" relative="1" as="geometry">
            <mxPoint x="240" y="141" as="sourcePoint" />
            <mxPoint x="295" y="253" as="targetPoint" />
          </mxGeometry>
        </mxCell>
        <mxCell id="IiCrrvJQZdERZgWnuMCt-75" value="" style="endArrow=classicThin;html=1;rounded=0;exitX=1;exitY=0.5;exitDx=0;exitDy=0;entryX=0;entryY=0.5;entryDx=0;entryDy=0;strokeWidth=1;endFill=1;fontFamily=宋体;fontSize=10.5;" parent="1" source="IiCrrvJQZdERZgWnuMCt-18" target="IiCrrvJQZdERZgWnuMCt-24" edge="1">
          <mxGeometry width="50" height="50" relative="1" as="geometry">
            <mxPoint x="240" y="175" as="sourcePoint" />
            <mxPoint x="295" y="253" as="targetPoint" />
          </mxGeometry>
        </mxCell>
        <mxCell id="IiCrrvJQZdERZgWnuMCt-76" value="" style="endArrow=classicThin;html=1;rounded=0;entryX=0;entryY=0.5;entryDx=0;entryDy=0;strokeWidth=1;endFill=1;fontFamily=宋体;fontSize=10.5;" parent="1" target="IiCrrvJQZdERZgWnuMCt-23" edge="1">
          <mxGeometry width="50" height="50" relative="1" as="geometry">
            <mxPoint x="235" y="170" as="sourcePoint" />
            <mxPoint x="295" y="218" as="targetPoint" />
          </mxGeometry>
        </mxCell>
        <mxCell id="IiCrrvJQZdERZgWnuMCt-77" value="" style="endArrow=classicThin;html=1;rounded=0;entryX=0;entryY=0.5;entryDx=0;entryDy=0;strokeWidth=1;exitX=1;exitY=0.5;exitDx=0;exitDy=0;endFill=1;fontFamily=宋体;fontSize=10.5;" parent="1" source="IiCrrvJQZdERZgWnuMCt-18" target="IiCrrvJQZdERZgWnuMCt-22" edge="1">
          <mxGeometry width="50" height="50" relative="1" as="geometry">
            <mxPoint x="240" y="175" as="sourcePoint" />
            <mxPoint x="295" y="183" as="targetPoint" />
          </mxGeometry>
        </mxCell>
        <mxCell id="IiCrrvJQZdERZgWnuMCt-78" value="" style="endArrow=classicThin;html=1;rounded=0;entryX=0;entryY=0.5;entryDx=0;entryDy=0;strokeWidth=1;exitX=1;exitY=0.5;exitDx=0;exitDy=0;endFill=1;fontFamily=宋体;fontSize=10.5;" parent="1" source="IiCrrvJQZdERZgWnuMCt-19" target="IiCrrvJQZdERZgWnuMCt-22" edge="1">
          <mxGeometry width="50" height="50" relative="1" as="geometry">
            <mxPoint x="240" y="175" as="sourcePoint" />
            <mxPoint x="295" y="148" as="targetPoint" />
          </mxGeometry>
        </mxCell>
        <mxCell id="IiCrrvJQZdERZgWnuMCt-79" value="" style="endArrow=classicThin;html=1;rounded=0;entryX=0;entryY=0.5;entryDx=0;entryDy=0;strokeWidth=1;exitX=1;exitY=0.5;exitDx=0;exitDy=0;endFill=1;fontFamily=宋体;fontSize=10.5;" parent="1" source="IiCrrvJQZdERZgWnuMCt-19" target="IiCrrvJQZdERZgWnuMCt-23" edge="1">
          <mxGeometry width="50" height="50" relative="1" as="geometry">
            <mxPoint x="240" y="210" as="sourcePoint" />
            <mxPoint x="295" y="148" as="targetPoint" />
          </mxGeometry>
        </mxCell>
        <mxCell id="IiCrrvJQZdERZgWnuMCt-80" value="" style="endArrow=classicThin;html=1;rounded=0;entryX=0;entryY=0.5;entryDx=0;entryDy=0;strokeWidth=1;exitX=1;exitY=0.5;exitDx=0;exitDy=0;endFill=1;fontFamily=宋体;fontSize=10.5;" parent="1" source="IiCrrvJQZdERZgWnuMCt-19" target="IiCrrvJQZdERZgWnuMCt-24" edge="1">
          <mxGeometry width="50" height="50" relative="1" as="geometry">
            <mxPoint x="240" y="210" as="sourcePoint" />
            <mxPoint x="295" y="183" as="targetPoint" />
          </mxGeometry>
        </mxCell>
        <mxCell id="IiCrrvJQZdERZgWnuMCt-81" value="" style="endArrow=classicThin;html=1;rounded=0;entryX=0;entryY=0.5;entryDx=0;entryDy=0;strokeWidth=1;exitX=1;exitY=0.5;exitDx=0;exitDy=0;endFill=1;fontFamily=宋体;fontSize=10.5;" parent="1" source="IiCrrvJQZdERZgWnuMCt-19" target="IiCrrvJQZdERZgWnuMCt-25" edge="1">
          <mxGeometry width="50" height="50" relative="1" as="geometry">
            <mxPoint x="240" y="210" as="sourcePoint" />
            <mxPoint x="295" y="218" as="targetPoint" />
          </mxGeometry>
        </mxCell>
        <mxCell id="IiCrrvJQZdERZgWnuMCt-82" value="" style="endArrow=classicThin;html=1;rounded=0;entryX=0;entryY=0.5;entryDx=0;entryDy=0;strokeWidth=1;exitX=1;exitY=0.5;exitDx=0;exitDy=0;endFill=1;fontFamily=宋体;fontSize=10.5;" parent="1" source="IiCrrvJQZdERZgWnuMCt-20" target="IiCrrvJQZdERZgWnuMCt-25" edge="1">
          <mxGeometry width="50" height="50" relative="1" as="geometry">
            <mxPoint x="240" y="210" as="sourcePoint" />
            <mxPoint x="295" y="253" as="targetPoint" />
          </mxGeometry>
        </mxCell>
        <mxCell id="IiCrrvJQZdERZgWnuMCt-83" value="" style="endArrow=classicThin;html=1;rounded=0;entryX=0;entryY=0.5;entryDx=0;entryDy=0;strokeWidth=1;exitX=1;exitY=0.5;exitDx=0;exitDy=0;endFill=1;fontFamily=宋体;fontSize=10.5;" parent="1" source="IiCrrvJQZdERZgWnuMCt-20" target="IiCrrvJQZdERZgWnuMCt-24" edge="1">
          <mxGeometry width="50" height="50" relative="1" as="geometry">
            <mxPoint x="240" y="245" as="sourcePoint" />
            <mxPoint x="295" y="253" as="targetPoint" />
          </mxGeometry>
        </mxCell>
        <mxCell id="IiCrrvJQZdERZgWnuMCt-84" value="" style="endArrow=classicThin;html=1;rounded=0;entryX=0;entryY=0.5;entryDx=0;entryDy=0;strokeWidth=1;exitX=1;exitY=0.5;exitDx=0;exitDy=0;endFill=1;fontFamily=宋体;fontSize=10.5;" parent="1" source="IiCrrvJQZdERZgWnuMCt-20" target="IiCrrvJQZdERZgWnuMCt-23" edge="1">
          <mxGeometry width="50" height="50" relative="1" as="geometry">
            <mxPoint x="240" y="254.5" as="sourcePoint" />
            <mxPoint x="295" y="227.5" as="targetPoint" />
          </mxGeometry>
        </mxCell>
        <mxCell id="IiCrrvJQZdERZgWnuMCt-85" value="" style="endArrow=classicThin;html=1;rounded=0;entryX=0;entryY=0.5;entryDx=0;entryDy=0;strokeWidth=1;exitX=1;exitY=0.5;exitDx=0;exitDy=0;endFill=1;fontFamily=宋体;fontSize=10.5;" parent="1" source="IiCrrvJQZdERZgWnuMCt-20" target="IiCrrvJQZdERZgWnuMCt-22" edge="1">
          <mxGeometry width="50" height="50" relative="1" as="geometry">
            <mxPoint x="240" y="245" as="sourcePoint" />
            <mxPoint x="295" y="183" as="targetPoint" />
          </mxGeometry>
        </mxCell>
        <mxCell id="IiCrrvJQZdERZgWnuMCt-86" value="" style="endArrow=classicThin;html=1;rounded=0;entryX=0;entryY=0.5;entryDx=0;entryDy=0;strokeWidth=1;exitX=1;exitY=0.5;exitDx=0;exitDy=0;endFill=1;fontFamily=宋体;fontSize=10.5;" parent="1" source="IiCrrvJQZdERZgWnuMCt-21" target="IiCrrvJQZdERZgWnuMCt-22" edge="1">
          <mxGeometry width="50" height="50" relative="1" as="geometry">
            <mxPoint x="240" y="245" as="sourcePoint" />
            <mxPoint x="295" y="148" as="targetPoint" />
          </mxGeometry>
        </mxCell>
        <mxCell id="IiCrrvJQZdERZgWnuMCt-87" value="" style="endArrow=classicThin;html=1;rounded=0;entryX=0;entryY=0.5;entryDx=0;entryDy=0;strokeWidth=1;exitX=1;exitY=0.5;exitDx=0;exitDy=0;endFill=1;fontFamily=宋体;fontSize=10.5;" parent="1" source="IiCrrvJQZdERZgWnuMCt-21" target="IiCrrvJQZdERZgWnuMCt-23" edge="1">
          <mxGeometry width="50" height="50" relative="1" as="geometry">
            <mxPoint x="240" y="280" as="sourcePoint" />
            <mxPoint x="295" y="148" as="targetPoint" />
          </mxGeometry>
        </mxCell>
        <mxCell id="IiCrrvJQZdERZgWnuMCt-88" value="" style="endArrow=classicThin;html=1;rounded=0;entryX=0;entryY=0.5;entryDx=0;entryDy=0;strokeWidth=1;exitX=1;exitY=0.5;exitDx=0;exitDy=0;endFill=1;fontFamily=宋体;fontSize=10.5;" parent="1" source="IiCrrvJQZdERZgWnuMCt-21" target="IiCrrvJQZdERZgWnuMCt-24" edge="1">
          <mxGeometry width="50" height="50" relative="1" as="geometry">
            <mxPoint x="240" y="280" as="sourcePoint" />
            <mxPoint x="295" y="183" as="targetPoint" />
          </mxGeometry>
        </mxCell>
        <mxCell id="IiCrrvJQZdERZgWnuMCt-89" value="" style="endArrow=classicThin;html=1;rounded=0;entryX=0;entryY=0.5;entryDx=0;entryDy=0;strokeWidth=1;exitX=1;exitY=0.5;exitDx=0;exitDy=0;endFill=1;fontFamily=宋体;fontSize=10.5;" parent="1" source="IiCrrvJQZdERZgWnuMCt-21" target="IiCrrvJQZdERZgWnuMCt-25" edge="1">
          <mxGeometry width="50" height="50" relative="1" as="geometry">
            <mxPoint x="240" y="280" as="sourcePoint" />
            <mxPoint x="295" y="218" as="targetPoint" />
          </mxGeometry>
        </mxCell>
        <mxCell id="IiCrrvJQZdERZgWnuMCt-90" value="" style="endArrow=classicThin;html=1;rounded=0;entryX=0;entryY=0.5;entryDx=0;entryDy=0;strokeWidth=1;exitX=1;exitY=0.5;exitDx=0;exitDy=0;endFill=1;fontFamily=宋体;fontSize=10.5;" parent="1" source="IiCrrvJQZdERZgWnuMCt-25" target="IiCrrvJQZdERZgWnuMCt-31" edge="1">
          <mxGeometry width="50" height="50" relative="1" as="geometry">
            <mxPoint x="240" y="280" as="sourcePoint" />
            <mxPoint x="295" y="253" as="targetPoint" />
          </mxGeometry>
        </mxCell>
        <mxCell id="IiCrrvJQZdERZgWnuMCt-91" value="" style="endArrow=classicThin;html=1;rounded=0;entryX=0;entryY=0.5;entryDx=0;entryDy=0;strokeWidth=1;exitX=1;exitY=0.5;exitDx=0;exitDy=0;endFill=1;fontFamily=宋体;fontSize=10.5;" parent="1" source="IiCrrvJQZdERZgWnuMCt-25" target="IiCrrvJQZdERZgWnuMCt-30" edge="1">
          <mxGeometry width="50" height="50" relative="1" as="geometry">
            <mxPoint x="320" y="253" as="sourcePoint" />
            <mxPoint x="355" y="253" as="targetPoint" />
          </mxGeometry>
        </mxCell>
        <mxCell id="IiCrrvJQZdERZgWnuMCt-92" value="" style="endArrow=classicThin;html=1;rounded=0;entryX=0;entryY=0.5;entryDx=0;entryDy=0;strokeWidth=1;exitX=1;exitY=0.5;exitDx=0;exitDy=0;endFill=1;fontFamily=宋体;fontSize=10.5;" parent="1" source="IiCrrvJQZdERZgWnuMCt-25" target="IiCrrvJQZdERZgWnuMCt-29" edge="1">
          <mxGeometry width="50" height="50" relative="1" as="geometry">
            <mxPoint x="320" y="253" as="sourcePoint" />
            <mxPoint x="355" y="218" as="targetPoint" />
          </mxGeometry>
        </mxCell>
        <mxCell id="IiCrrvJQZdERZgWnuMCt-94" value="" style="endArrow=classicThin;html=1;rounded=0;entryX=0;entryY=0.5;entryDx=0;entryDy=0;strokeWidth=1;exitX=1;exitY=0.5;exitDx=0;exitDy=0;endFill=1;fontFamily=宋体;fontSize=10.5;" parent="1" source="IiCrrvJQZdERZgWnuMCt-24" target="IiCrrvJQZdERZgWnuMCt-31" edge="1">
          <mxGeometry width="50" height="50" relative="1" as="geometry">
            <mxPoint x="320" y="253" as="sourcePoint" />
            <mxPoint x="355" y="253" as="targetPoint" />
          </mxGeometry>
        </mxCell>
        <mxCell id="IiCrrvJQZdERZgWnuMCt-95" value="" style="endArrow=classicThin;html=1;rounded=0;entryX=0;entryY=0.5;entryDx=0;entryDy=0;strokeWidth=1;exitX=1;exitY=0.5;exitDx=0;exitDy=0;endFill=1;fontFamily=宋体;fontSize=10.5;" parent="1" source="IiCrrvJQZdERZgWnuMCt-24" target="IiCrrvJQZdERZgWnuMCt-30" edge="1">
          <mxGeometry width="50" height="50" relative="1" as="geometry">
            <mxPoint x="320" y="218" as="sourcePoint" />
            <mxPoint x="355" y="253" as="targetPoint" />
          </mxGeometry>
        </mxCell>
        <mxCell id="IiCrrvJQZdERZgWnuMCt-96" value="" style="endArrow=classicThin;html=1;rounded=0;entryX=0;entryY=0.5;entryDx=0;entryDy=0;strokeWidth=1;exitX=0.974;exitY=0.549;exitDx=0;exitDy=0;exitPerimeter=0;endFill=1;fontFamily=宋体;fontSize=10.5;" parent="1" source="IiCrrvJQZdERZgWnuMCt-24" target="IiCrrvJQZdERZgWnuMCt-29" edge="1">
          <mxGeometry width="50" height="50" relative="1" as="geometry">
            <mxPoint x="320" y="218" as="sourcePoint" />
            <mxPoint x="355" y="218" as="targetPoint" />
          </mxGeometry>
        </mxCell>
        <mxCell id="IiCrrvJQZdERZgWnuMCt-99" value="" style="endArrow=classicThin;html=1;rounded=0;entryX=0;entryY=0.5;entryDx=0;entryDy=0;strokeWidth=1;exitX=1;exitY=0.5;exitDx=0;exitDy=0;endFill=1;fontFamily=宋体;fontSize=10.5;" parent="1" source="IiCrrvJQZdERZgWnuMCt-23" target="IiCrrvJQZdERZgWnuMCt-29" edge="1">
          <mxGeometry width="50" height="50" relative="1" as="geometry">
            <mxPoint x="320" y="183" as="sourcePoint" />
            <mxPoint x="355" y="148" as="targetPoint" />
          </mxGeometry>
        </mxCell>
        <mxCell id="IiCrrvJQZdERZgWnuMCt-100" value="" style="endArrow=classicThin;html=1;rounded=0;entryX=0;entryY=0.5;entryDx=0;entryDy=0;strokeWidth=1;exitX=1;exitY=0.5;exitDx=0;exitDy=0;endFill=1;fontFamily=宋体;fontSize=10.5;" parent="1" source="IiCrrvJQZdERZgWnuMCt-23" target="IiCrrvJQZdERZgWnuMCt-30" edge="1">
          <mxGeometry width="50" height="50" relative="1" as="geometry">
            <mxPoint x="320" y="183" as="sourcePoint" />
            <mxPoint x="355" y="183" as="targetPoint" />
          </mxGeometry>
        </mxCell>
        <mxCell id="IiCrrvJQZdERZgWnuMCt-101" value="" style="endArrow=classicThin;html=1;rounded=0;entryX=0;entryY=0.5;entryDx=0;entryDy=0;strokeWidth=1;exitX=1;exitY=0.5;exitDx=0;exitDy=0;endFill=1;fontFamily=宋体;fontSize=10.5;" parent="1" source="IiCrrvJQZdERZgWnuMCt-23" target="IiCrrvJQZdERZgWnuMCt-31" edge="1">
          <mxGeometry width="50" height="50" relative="1" as="geometry">
            <mxPoint x="320" y="183" as="sourcePoint" />
            <mxPoint x="355" y="218" as="targetPoint" />
          </mxGeometry>
        </mxCell>
        <mxCell id="IiCrrvJQZdERZgWnuMCt-102" value="" style="endArrow=classicThin;html=1;rounded=0;entryX=0;entryY=0.5;entryDx=0;entryDy=0;strokeWidth=1;exitX=1;exitY=0.5;exitDx=0;exitDy=0;endFill=1;fontFamily=宋体;fontSize=10.5;" parent="1" source="IiCrrvJQZdERZgWnuMCt-22" target="IiCrrvJQZdERZgWnuMCt-31" edge="1">
          <mxGeometry width="50" height="50" relative="1" as="geometry">
            <mxPoint x="320" y="183" as="sourcePoint" />
            <mxPoint x="355" y="253" as="targetPoint" />
          </mxGeometry>
        </mxCell>
        <mxCell id="IiCrrvJQZdERZgWnuMCt-103" value="" style="endArrow=classicThin;html=1;rounded=0;entryX=0;entryY=0.5;entryDx=0;entryDy=0;strokeWidth=1;exitX=1;exitY=0.5;exitDx=0;exitDy=0;endFill=1;fontFamily=宋体;fontSize=10.5;" parent="1" source="IiCrrvJQZdERZgWnuMCt-22" target="IiCrrvJQZdERZgWnuMCt-30" edge="1">
          <mxGeometry width="50" height="50" relative="1" as="geometry">
            <mxPoint x="320" y="148" as="sourcePoint" />
            <mxPoint x="355" y="253" as="targetPoint" />
          </mxGeometry>
        </mxCell>
        <mxCell id="IiCrrvJQZdERZgWnuMCt-105" value="" style="endArrow=classicThin;html=1;rounded=0;entryX=0;entryY=0.5;entryDx=0;entryDy=0;strokeWidth=1;exitX=1;exitY=0.5;exitDx=0;exitDy=0;shadow=0;jumpStyle=none;endFill=1;fontFamily=宋体;fontSize=10.5;" parent="1" source="IiCrrvJQZdERZgWnuMCt-22" target="IiCrrvJQZdERZgWnuMCt-29" edge="1">
          <mxGeometry width="50" height="50" relative="1" as="geometry">
            <mxPoint x="325" y="145" as="sourcePoint" />
            <mxPoint x="355" y="218" as="targetPoint" />
          </mxGeometry>
        </mxCell>
        <mxCell id="IiCrrvJQZdERZgWnuMCt-125" value="&lt;p style=&quot;line-height: 120%; font-size: 10.5px;&quot;&gt;&lt;br&gt;&lt;/p&gt;" style="ellipse;whiteSpace=wrap;html=1;aspect=fixed;fillColor=#e1d5e7;strokeColor=none;labelPosition=center;verticalLabelPosition=middle;align=center;verticalAlign=middle;labelBackgroundColor=none;labelBorderColor=none;spacing=2;fontSize=10.5;fontFamily=宋体;" parent="1" vertex="1">
          <mxGeometry x="294" y="229" width="59" height="59" as="geometry" />
        </mxCell>
        <mxCell id="IiCrrvJQZdERZgWnuMCt-128" value="&lt;div style=&quot;text-align: center; font-size: 10.5px;&quot;&gt;&lt;span style=&quot;background-color: initial; font-size: 10.5px;&quot;&gt;&lt;font style=&quot;font-size: 10.5px;&quot;&gt;神经元&lt;/font&gt;&lt;/span&gt;&lt;/div&gt;" style="text;html=1;fontSize=10.5;whiteSpace=wrap;fillColor=none;strokeColor=none;fontColor=#3333FF;verticalAlign=middle;fontFamily=宋体;" parent="1" vertex="1">
          <mxGeometry x="306" y="237.75" width="35" height="14.75" as="geometry" />
        </mxCell>
        <mxCell id="IiCrrvJQZdERZgWnuMCt-129" value="" style="endArrow=classicThin;html=1;rounded=0;strokeWidth=1;exitX=1;exitY=0.5;exitDx=0;exitDy=0;endFill=1;movable=1;resizable=1;rotatable=1;deletable=1;editable=1;locked=0;connectable=1;fontFamily=宋体;fontSize=10.5;entryX=0.998;entryY=0.533;entryDx=0;entryDy=0;entryPerimeter=0;" parent="1" source="IiCrrvJQZdERZgWnuMCt-125" target="IiCrrvJQZdERZgWnuMCt-145" edge="1">
          <mxGeometry width="50" height="50" relative="1" as="geometry">
            <mxPoint x="391.6882499999998" y="257" as="sourcePoint" />
            <mxPoint x="400" y="295" as="targetPoint" />
          </mxGeometry>
        </mxCell>
        <mxCell id="IiCrrvJQZdERZgWnuMCt-134" value="" style="endArrow=classicThin;html=1;rounded=0;entryX=0;entryY=0.5;entryDx=0;entryDy=0;strokeWidth=1;endFill=1;fontFamily=宋体;fontSize=10.5;" parent="1" target="IiCrrvJQZdERZgWnuMCt-125" edge="1">
          <mxGeometry width="50" height="50" relative="1" as="geometry">
            <mxPoint x="256" y="260" as="sourcePoint" />
            <mxPoint x="257" y="257.5" as="targetPoint" />
          </mxGeometry>
        </mxCell>
        <mxCell id="IiCrrvJQZdERZgWnuMCt-135" value="&lt;font style=&quot;font-size: 10.5px;&quot;&gt;&lt;i style=&quot;font-size: 10.5px;&quot;&gt;$$\mathbf{w}_{1}\mathbf{x}_{1}$$&lt;/i&gt;&lt;/font&gt;" style="text;html=1;strokeColor=none;fillColor=none;align=center;verticalAlign=middle;whiteSpace=wrap;rounded=0;fontSize=10.5;fontFamily=宋体;rotation=357;" parent="1" vertex="1">
          <mxGeometry x="253" y="249" width="29.25" height="7.75" as="geometry" />
        </mxCell>
        <mxCell id="IiCrrvJQZdERZgWnuMCt-139" value="" style="endArrow=classicThin;html=1;rounded=0;entryX=0;entryY=0.5;entryDx=0;entryDy=0;strokeWidth=1;endFill=1;fontFamily=宋体;fontSize=10.5;" parent="1" target="IiCrrvJQZdERZgWnuMCt-125" edge="1">
          <mxGeometry width="50" height="50" relative="1" as="geometry">
            <mxPoint x="260" y="237" as="sourcePoint" />
            <mxPoint x="294" y="231.89000000000001" as="targetPoint" />
          </mxGeometry>
        </mxCell>
        <mxCell id="IiCrrvJQZdERZgWnuMCt-140" value="&lt;font style=&quot;font-size: 10.5px;&quot;&gt;&lt;i style=&quot;font-size: 10.5px;&quot;&gt;$$\mathbf{w}_{0}\mathbf{x}_{0}$$&lt;/i&gt;&lt;/font&gt;" style="text;html=1;strokeColor=none;fillColor=none;align=center;verticalAlign=middle;whiteSpace=wrap;rounded=0;fontSize=10.5;rotation=34;fontFamily=宋体;" parent="1" vertex="1">
          <mxGeometry x="263" y="236.61" width="29" height="7.25" as="geometry" />
        </mxCell>
        <mxCell id="IiCrrvJQZdERZgWnuMCt-143" value="" style="endArrow=classicThin;html=1;rounded=0;entryX=0;entryY=0.5;entryDx=0;entryDy=0;strokeWidth=1;endFill=1;fontFamily=宋体;fontSize=10.5;" parent="1" target="IiCrrvJQZdERZgWnuMCt-125" edge="1">
          <mxGeometry width="50" height="50" relative="1" as="geometry">
            <mxPoint x="260" y="277" as="sourcePoint" />
            <mxPoint x="289" y="309.5" as="targetPoint" />
          </mxGeometry>
        </mxCell>
        <mxCell id="IiCrrvJQZdERZgWnuMCt-144" value="&lt;font style=&quot;font-size: 10.5px;&quot;&gt;&lt;i style=&quot;font-size: 10.5px;&quot;&gt;$$\mathbf{b}$$&lt;/i&gt;&lt;/font&gt;" style="text;html=1;strokeColor=none;fillColor=none;align=center;verticalAlign=middle;whiteSpace=wrap;rounded=0;fontSize=10.5;rotation=-30;fontFamily=宋体;" parent="1" vertex="1">
          <mxGeometry x="258.25" y="262.5" width="16.25" height="8" as="geometry" />
        </mxCell>
        <mxCell id="IiCrrvJQZdERZgWnuMCt-147" value="" style="endArrow=classic;html=1;rounded=0;strokeColor=#FF0000;shape=flexArrow;width=4.75609756097561;endSize=3.96219512195122;endWidth=11.615110053539562;fillColor=#FF0000;exitX=0.8;exitY=0.7;exitDx=0;exitDy=0;exitPerimeter=0;fontFamily=宋体;fontSize=10.5;" parent="1" edge="1">
          <mxGeometry width="50" height="50" relative="1" as="geometry">
            <mxPoint x="233" y="209" as="sourcePoint" />
            <mxPoint x="310" y="235" as="targetPoint" />
          </mxGeometry>
        </mxCell>
        <mxCell id="fHgwsBmxxACwKIcdnnUg-1" value="&lt;p style=&quot;line-height: 120%; font-size: 10.5px;&quot;&gt;&lt;font style=&quot;font-size: 10.5px;&quot;&gt;&lt;span style=&quot;font-size: 10.5px;&quot;&gt;&lt;i style=&quot;font-size: 10.5px;&quot;&gt;$$\mathbf{x}_{2}$$&lt;/i&gt;&lt;/span&gt;&lt;/font&gt;&lt;/p&gt;" style="ellipse;whiteSpace=wrap;html=1;aspect=fixed;fillColor=#d5e8d4;strokeColor=none;labelPosition=center;verticalLabelPosition=middle;align=center;verticalAlign=middle;fontColor=default;labelBackgroundColor=none;labelBorderColor=none;spacing=2;fontFamily=宋体;fontSize=10.5;" parent="1" vertex="1">
          <mxGeometry x="50" y="192.5" width="25" height="25" as="geometry" />
        </mxCell>
        <mxCell id="fHgwsBmxxACwKIcdnnUg-3" value="&lt;p style=&quot;line-height: 120%; font-size: 10.5px;&quot;&gt;&lt;font style=&quot;font-size: 10.5px;&quot;&gt;&lt;span style=&quot;font-size: 10.5px;&quot;&gt;&lt;i style=&quot;font-size: 10.5px;&quot;&gt;$$\mathbf{b}^{[1]}$$&lt;/i&gt;&lt;/span&gt;&lt;/font&gt;&lt;/p&gt;" style="ellipse;whiteSpace=wrap;html=1;aspect=fixed;fillColor=#e1d5e7;strokeColor=none;labelPosition=center;verticalLabelPosition=middle;align=center;verticalAlign=middle;labelBackgroundColor=none;labelBorderColor=none;spacing=2;fontFamily=宋体;fontSize=10.5;" parent="1" vertex="1">
          <mxGeometry x="130" y="85" width="25" height="25" as="geometry" />
        </mxCell>
        <mxCell id="fHgwsBmxxACwKIcdnnUg-4" value="&lt;p style=&quot;line-height: 120%; font-size: 10.5px;&quot;&gt;&lt;font style=&quot;font-size: 10.5px;&quot;&gt;&lt;span style=&quot;font-size: 10.5px;&quot;&gt;&lt;i style=&quot;font-size: 10.5px;&quot;&gt;$$\mathbf{a}_{0}^{[1]}$$&lt;/i&gt;&lt;/span&gt;&lt;/font&gt;&lt;/p&gt;" style="ellipse;whiteSpace=wrap;html=1;aspect=fixed;fillColor=#e1d5e7;strokeColor=none;labelPosition=center;verticalLabelPosition=middle;align=center;verticalAlign=middle;labelBackgroundColor=none;labelBorderColor=none;spacing=2;fontFamily=宋体;fontSize=10.5;" parent="1" vertex="1">
          <mxGeometry x="130" y="122.5" width="25" height="25" as="geometry" />
        </mxCell>
        <mxCell id="fHgwsBmxxACwKIcdnnUg-5" value="&lt;p style=&quot;line-height: 120%; font-size: 10.5px;&quot;&gt;&lt;font style=&quot;font-size: 10.5px;&quot;&gt;&lt;span style=&quot;font-size: 10.5px;&quot;&gt;&lt;i style=&quot;font-size: 10.5px;&quot;&gt;$$\mathbf{a}_{1}^{[1]}$$&lt;/i&gt;&lt;/span&gt;&lt;/font&gt;&lt;/p&gt;" style="ellipse;whiteSpace=wrap;html=1;aspect=fixed;fillColor=#e1d5e7;strokeColor=none;labelPosition=center;verticalLabelPosition=middle;align=center;verticalAlign=middle;labelBackgroundColor=none;labelBorderColor=none;spacing=2;fontFamily=宋体;fontSize=10.5;" parent="1" vertex="1">
          <mxGeometry x="130" y="157.5" width="25" height="25" as="geometry" />
        </mxCell>
        <mxCell id="fHgwsBmxxACwKIcdnnUg-6" value="&lt;p style=&quot;line-height: 120%; font-size: 10.5px;&quot;&gt;&lt;font style=&quot;font-size: 10.5px;&quot;&gt;&lt;span style=&quot;font-size: 10.5px;&quot;&gt;&lt;i style=&quot;font-size: 10.5px;&quot;&gt;$$\mathbf{a}_{2}^{[1]}$$&lt;/i&gt;&lt;/span&gt;&lt;/font&gt;&lt;/p&gt;" style="ellipse;whiteSpace=wrap;html=1;aspect=fixed;fillColor=#e1d5e7;strokeColor=none;labelPosition=center;verticalLabelPosition=middle;align=center;verticalAlign=middle;labelBackgroundColor=none;labelBorderColor=none;spacing=2;fontFamily=宋体;fontSize=10.5;" parent="1" vertex="1">
          <mxGeometry x="130" y="192.5" width="25" height="25" as="geometry" />
        </mxCell>
        <mxCell id="fHgwsBmxxACwKIcdnnUg-7" value="&lt;p style=&quot;line-height: 120%; font-size: 10.5px;&quot;&gt;&lt;font style=&quot;font-size: 10.5px;&quot;&gt;&lt;span style=&quot;font-size: 10.5px;&quot;&gt;&lt;i style=&quot;font-size: 10.5px;&quot;&gt;$$\mathbf{a}_{3}^{[1]}$$&lt;/i&gt;&lt;/span&gt;&lt;/font&gt;&lt;/p&gt;" style="ellipse;whiteSpace=wrap;html=1;aspect=fixed;fillColor=#e1d5e7;strokeColor=none;labelPosition=center;verticalLabelPosition=middle;align=center;verticalAlign=middle;labelBackgroundColor=none;labelBorderColor=none;spacing=2;fontFamily=宋体;fontSize=10.5;" parent="1" vertex="1">
          <mxGeometry x="130" y="227.5" width="25" height="25" as="geometry" />
        </mxCell>
        <mxCell id="fHgwsBmxxACwKIcdnnUg-12" value="" style="endArrow=classicThin;html=1;rounded=0;exitX=1;exitY=0.5;exitDx=0;exitDy=0;entryX=0;entryY=0.5;entryDx=0;entryDy=0;strokeWidth=1;endFill=1;fontFamily=宋体;fontSize=10.5;" parent="1" source="IiCrrvJQZdERZgWnuMCt-15" target="fHgwsBmxxACwKIcdnnUg-3" edge="1">
          <mxGeometry width="50" height="50" relative="1" as="geometry">
            <mxPoint x="160" y="103" as="sourcePoint" />
            <mxPoint x="215" y="103" as="targetPoint" />
          </mxGeometry>
        </mxCell>
        <mxCell id="fHgwsBmxxACwKIcdnnUg-13" value="" style="endArrow=classicThin;html=1;rounded=0;exitX=1;exitY=0.5;exitDx=0;exitDy=0;entryX=0;entryY=0.5;entryDx=0;entryDy=0;strokeWidth=1;endFill=1;fontFamily=宋体;fontSize=10.5;" parent="1" source="IiCrrvJQZdERZgWnuMCt-15" target="fHgwsBmxxACwKIcdnnUg-4" edge="1">
          <mxGeometry width="50" height="50" relative="1" as="geometry">
            <mxPoint x="80" y="103" as="sourcePoint" />
            <mxPoint x="135" y="103" as="targetPoint" />
          </mxGeometry>
        </mxCell>
        <mxCell id="fHgwsBmxxACwKIcdnnUg-14" value="" style="endArrow=classicThin;html=1;rounded=0;exitX=1;exitY=0.5;exitDx=0;exitDy=0;entryX=0;entryY=0.5;entryDx=0;entryDy=0;strokeWidth=1;endFill=1;fontFamily=宋体;fontSize=10.5;" parent="1" source="IiCrrvJQZdERZgWnuMCt-15" target="fHgwsBmxxACwKIcdnnUg-5" edge="1">
          <mxGeometry width="50" height="50" relative="1" as="geometry">
            <mxPoint x="80" y="103" as="sourcePoint" />
            <mxPoint x="135" y="140" as="targetPoint" />
          </mxGeometry>
        </mxCell>
        <mxCell id="fHgwsBmxxACwKIcdnnUg-15" value="" style="endArrow=classicThin;html=1;rounded=0;exitX=1;exitY=0.5;exitDx=0;exitDy=0;entryX=0;entryY=0.5;entryDx=0;entryDy=0;strokeWidth=1;endFill=1;fontFamily=宋体;fontSize=10.5;" parent="1" source="IiCrrvJQZdERZgWnuMCt-15" target="fHgwsBmxxACwKIcdnnUg-6" edge="1">
          <mxGeometry width="50" height="50" relative="1" as="geometry">
            <mxPoint x="80" y="103" as="sourcePoint" />
            <mxPoint x="135" y="175" as="targetPoint" />
          </mxGeometry>
        </mxCell>
        <mxCell id="fHgwsBmxxACwKIcdnnUg-16" value="" style="endArrow=classicThin;html=1;rounded=0;exitX=1;exitY=0.5;exitDx=0;exitDy=0;entryX=0;entryY=0.5;entryDx=0;entryDy=0;strokeWidth=1;endFill=1;fontFamily=宋体;fontSize=10.5;" parent="1" source="IiCrrvJQZdERZgWnuMCt-15" target="fHgwsBmxxACwKIcdnnUg-7" edge="1">
          <mxGeometry width="50" height="50" relative="1" as="geometry">
            <mxPoint x="80" y="103" as="sourcePoint" />
            <mxPoint x="135" y="210" as="targetPoint" />
          </mxGeometry>
        </mxCell>
        <mxCell id="fHgwsBmxxACwKIcdnnUg-17" value="" style="endArrow=classicThin;html=1;rounded=0;exitX=1;exitY=0.5;exitDx=0;exitDy=0;entryX=0;entryY=0.5;entryDx=0;entryDy=0;strokeWidth=1;endFill=1;fontFamily=宋体;fontSize=10.5;" parent="1" source="IiCrrvJQZdERZgWnuMCt-1" target="fHgwsBmxxACwKIcdnnUg-3" edge="1">
          <mxGeometry width="50" height="50" relative="1" as="geometry">
            <mxPoint x="80" y="103" as="sourcePoint" />
            <mxPoint x="135" y="103" as="targetPoint" />
          </mxGeometry>
        </mxCell>
        <mxCell id="fHgwsBmxxACwKIcdnnUg-18" value="" style="endArrow=classicThin;html=1;rounded=0;exitX=1;exitY=0.5;exitDx=0;exitDy=0;entryX=0;entryY=0.5;entryDx=0;entryDy=0;strokeWidth=1;endFill=1;fontFamily=宋体;fontSize=10.5;" parent="1" source="IiCrrvJQZdERZgWnuMCt-1" target="fHgwsBmxxACwKIcdnnUg-4" edge="1">
          <mxGeometry width="50" height="50" relative="1" as="geometry">
            <mxPoint x="80" y="140" as="sourcePoint" />
            <mxPoint x="135" y="103" as="targetPoint" />
          </mxGeometry>
        </mxCell>
        <mxCell id="fHgwsBmxxACwKIcdnnUg-19" value="" style="endArrow=classicThin;html=1;rounded=0;exitX=1;exitY=0.5;exitDx=0;exitDy=0;entryX=0;entryY=0.5;entryDx=0;entryDy=0;strokeWidth=1;endFill=1;fontFamily=宋体;fontSize=10.5;" parent="1" source="IiCrrvJQZdERZgWnuMCt-1" target="fHgwsBmxxACwKIcdnnUg-5" edge="1">
          <mxGeometry width="50" height="50" relative="1" as="geometry">
            <mxPoint x="80" y="140" as="sourcePoint" />
            <mxPoint x="135" y="140" as="targetPoint" />
          </mxGeometry>
        </mxCell>
        <mxCell id="fHgwsBmxxACwKIcdnnUg-20" value="" style="endArrow=classicThin;html=1;rounded=0;exitX=1;exitY=0.5;exitDx=0;exitDy=0;entryX=0;entryY=0.5;entryDx=0;entryDy=0;strokeWidth=1;endFill=1;fontFamily=宋体;fontSize=10.5;" parent="1" source="IiCrrvJQZdERZgWnuMCt-1" target="fHgwsBmxxACwKIcdnnUg-6" edge="1">
          <mxGeometry width="50" height="50" relative="1" as="geometry">
            <mxPoint x="85" y="145" as="sourcePoint" />
            <mxPoint x="140" y="145" as="targetPoint" />
          </mxGeometry>
        </mxCell>
        <mxCell id="fHgwsBmxxACwKIcdnnUg-21" value="" style="endArrow=classicThin;html=1;rounded=0;exitX=1;exitY=0.5;exitDx=0;exitDy=0;entryX=0;entryY=0.5;entryDx=0;entryDy=0;strokeWidth=1;endFill=1;fontFamily=宋体;fontSize=10.5;" parent="1" source="IiCrrvJQZdERZgWnuMCt-1" target="fHgwsBmxxACwKIcdnnUg-7" edge="1">
          <mxGeometry width="50" height="50" relative="1" as="geometry">
            <mxPoint x="90" y="150" as="sourcePoint" />
            <mxPoint x="145" y="150" as="targetPoint" />
          </mxGeometry>
        </mxCell>
        <mxCell id="fHgwsBmxxACwKIcdnnUg-22" value="" style="endArrow=classicThin;html=1;rounded=0;exitX=1;exitY=0.5;exitDx=0;exitDy=0;entryX=0;entryY=0.5;entryDx=0;entryDy=0;strokeWidth=1;endFill=1;fontFamily=宋体;fontSize=10.5;" parent="1" source="IiCrrvJQZdERZgWnuMCt-11" target="fHgwsBmxxACwKIcdnnUg-3" edge="1">
          <mxGeometry width="50" height="50" relative="1" as="geometry">
            <mxPoint x="80" y="140" as="sourcePoint" />
            <mxPoint x="135" y="245" as="targetPoint" />
          </mxGeometry>
        </mxCell>
        <mxCell id="fHgwsBmxxACwKIcdnnUg-23" value="" style="endArrow=classicThin;html=1;rounded=0;exitX=1;exitY=0.5;exitDx=0;exitDy=0;entryX=0;entryY=0.5;entryDx=0;entryDy=0;strokeWidth=1;endFill=1;fontFamily=宋体;fontSize=10.5;" parent="1" source="IiCrrvJQZdERZgWnuMCt-11" target="fHgwsBmxxACwKIcdnnUg-4" edge="1">
          <mxGeometry width="50" height="50" relative="1" as="geometry">
            <mxPoint x="80" y="175" as="sourcePoint" />
            <mxPoint x="135" y="103" as="targetPoint" />
          </mxGeometry>
        </mxCell>
        <mxCell id="fHgwsBmxxACwKIcdnnUg-24" value="" style="endArrow=classicThin;html=1;rounded=0;exitX=1;exitY=0.5;exitDx=0;exitDy=0;entryX=0;entryY=0.5;entryDx=0;entryDy=0;strokeWidth=1;endFill=1;fontFamily=宋体;fontSize=10.5;" parent="1" source="IiCrrvJQZdERZgWnuMCt-11" target="fHgwsBmxxACwKIcdnnUg-5" edge="1">
          <mxGeometry width="50" height="50" relative="1" as="geometry">
            <mxPoint x="80" y="175" as="sourcePoint" />
            <mxPoint x="135" y="140" as="targetPoint" />
          </mxGeometry>
        </mxCell>
        <mxCell id="fHgwsBmxxACwKIcdnnUg-25" value="" style="endArrow=classicThin;html=1;rounded=0;exitX=1;exitY=0.5;exitDx=0;exitDy=0;entryX=0;entryY=0.5;entryDx=0;entryDy=0;strokeWidth=1;endFill=1;fontFamily=宋体;fontSize=10.5;" parent="1" source="IiCrrvJQZdERZgWnuMCt-11" target="fHgwsBmxxACwKIcdnnUg-6" edge="1">
          <mxGeometry width="50" height="50" relative="1" as="geometry">
            <mxPoint x="80" y="175" as="sourcePoint" />
            <mxPoint x="135" y="175" as="targetPoint" />
          </mxGeometry>
        </mxCell>
        <mxCell id="fHgwsBmxxACwKIcdnnUg-26" value="" style="endArrow=classicThin;html=1;rounded=0;exitX=1;exitY=0.5;exitDx=0;exitDy=0;entryX=0;entryY=0.5;entryDx=0;entryDy=0;strokeWidth=1;endFill=1;fontFamily=宋体;fontSize=10.5;" parent="1" source="IiCrrvJQZdERZgWnuMCt-11" target="fHgwsBmxxACwKIcdnnUg-7" edge="1">
          <mxGeometry width="50" height="50" relative="1" as="geometry">
            <mxPoint x="85" y="180" as="sourcePoint" />
            <mxPoint x="140" y="180" as="targetPoint" />
          </mxGeometry>
        </mxCell>
        <mxCell id="fHgwsBmxxACwKIcdnnUg-27" value="" style="endArrow=classicThin;html=1;rounded=0;exitX=1;exitY=0.5;exitDx=0;exitDy=0;entryX=0;entryY=0.5;entryDx=0;entryDy=0;strokeWidth=1;endFill=1;fontFamily=宋体;fontSize=10.5;" parent="1" source="fHgwsBmxxACwKIcdnnUg-1" target="fHgwsBmxxACwKIcdnnUg-3" edge="1">
          <mxGeometry width="50" height="50" relative="1" as="geometry">
            <mxPoint x="90" y="185" as="sourcePoint" />
            <mxPoint x="145" y="185" as="targetPoint" />
          </mxGeometry>
        </mxCell>
        <mxCell id="fHgwsBmxxACwKIcdnnUg-28" value="" style="endArrow=classicThin;html=1;rounded=0;exitX=1;exitY=0.5;exitDx=0;exitDy=0;entryX=0;entryY=0.5;entryDx=0;entryDy=0;strokeWidth=1;endFill=1;fontFamily=宋体;fontSize=10.5;" parent="1" source="fHgwsBmxxACwKIcdnnUg-1" target="fHgwsBmxxACwKIcdnnUg-4" edge="1">
          <mxGeometry width="50" height="50" relative="1" as="geometry">
            <mxPoint x="95" y="190" as="sourcePoint" />
            <mxPoint x="150" y="190" as="targetPoint" />
          </mxGeometry>
        </mxCell>
        <mxCell id="fHgwsBmxxACwKIcdnnUg-29" value="" style="endArrow=classicThin;html=1;rounded=0;exitX=1;exitY=0.5;exitDx=0;exitDy=0;entryX=0;entryY=0.5;entryDx=0;entryDy=0;strokeWidth=1;endFill=1;fontFamily=宋体;fontSize=10.5;" parent="1" source="fHgwsBmxxACwKIcdnnUg-1" target="fHgwsBmxxACwKIcdnnUg-5" edge="1">
          <mxGeometry width="50" height="50" relative="1" as="geometry">
            <mxPoint x="100" y="195" as="sourcePoint" />
            <mxPoint x="155" y="195" as="targetPoint" />
          </mxGeometry>
        </mxCell>
        <mxCell id="fHgwsBmxxACwKIcdnnUg-30" value="" style="endArrow=classicThin;html=1;rounded=0;exitX=1;exitY=0.5;exitDx=0;exitDy=0;entryX=0;entryY=0.5;entryDx=0;entryDy=0;strokeWidth=1;endFill=1;fontFamily=宋体;fontSize=10.5;" parent="1" source="fHgwsBmxxACwKIcdnnUg-1" target="fHgwsBmxxACwKIcdnnUg-6" edge="1">
          <mxGeometry width="50" height="50" relative="1" as="geometry">
            <mxPoint x="105" y="200" as="sourcePoint" />
            <mxPoint x="160" y="200" as="targetPoint" />
          </mxGeometry>
        </mxCell>
        <mxCell id="fHgwsBmxxACwKIcdnnUg-31" value="" style="endArrow=classicThin;html=1;rounded=0;exitX=1;exitY=0.5;exitDx=0;exitDy=0;entryX=0;entryY=0.5;entryDx=0;entryDy=0;strokeWidth=1;endFill=1;fontFamily=宋体;fontSize=10.5;" parent="1" source="fHgwsBmxxACwKIcdnnUg-1" target="fHgwsBmxxACwKIcdnnUg-7" edge="1">
          <mxGeometry width="50" height="50" relative="1" as="geometry">
            <mxPoint x="110" y="205" as="sourcePoint" />
            <mxPoint x="165" y="205" as="targetPoint" />
          </mxGeometry>
        </mxCell>
        <mxCell id="fHgwsBmxxACwKIcdnnUg-32" value="" style="endArrow=classicThin;html=1;rounded=0;exitX=1;exitY=0.5;exitDx=0;exitDy=0;entryX=0;entryY=0.5;entryDx=0;entryDy=0;strokeWidth=1;endFill=1;fontFamily=宋体;fontSize=10.5;" parent="1" source="IiCrrvJQZdERZgWnuMCt-13" target="fHgwsBmxxACwKIcdnnUg-3" edge="1">
          <mxGeometry width="50" height="50" relative="1" as="geometry">
            <mxPoint x="115" y="210" as="sourcePoint" />
            <mxPoint x="170" y="210" as="targetPoint" />
          </mxGeometry>
        </mxCell>
        <mxCell id="fHgwsBmxxACwKIcdnnUg-33" value="" style="endArrow=classicThin;html=1;rounded=0;exitX=1;exitY=0.5;exitDx=0;exitDy=0;entryX=0;entryY=0.5;entryDx=0;entryDy=0;strokeWidth=1;endFill=1;fontFamily=宋体;fontSize=10.5;" parent="1" source="IiCrrvJQZdERZgWnuMCt-13" target="fHgwsBmxxACwKIcdnnUg-4" edge="1">
          <mxGeometry width="50" height="50" relative="1" as="geometry">
            <mxPoint x="80" y="245" as="sourcePoint" />
            <mxPoint x="135" y="103" as="targetPoint" />
          </mxGeometry>
        </mxCell>
        <mxCell id="fHgwsBmxxACwKIcdnnUg-34" value="" style="endArrow=classicThin;html=1;rounded=0;exitX=1;exitY=0.5;exitDx=0;exitDy=0;entryX=0;entryY=0.5;entryDx=0;entryDy=0;strokeWidth=1;endFill=1;fontFamily=宋体;fontSize=10.5;" parent="1" source="IiCrrvJQZdERZgWnuMCt-13" target="fHgwsBmxxACwKIcdnnUg-5" edge="1">
          <mxGeometry width="50" height="50" relative="1" as="geometry">
            <mxPoint x="80" y="245" as="sourcePoint" />
            <mxPoint x="135" y="140" as="targetPoint" />
          </mxGeometry>
        </mxCell>
        <mxCell id="fHgwsBmxxACwKIcdnnUg-35" value="" style="endArrow=classicThin;html=1;rounded=0;exitX=1;exitY=0.5;exitDx=0;exitDy=0;entryX=0;entryY=0.5;entryDx=0;entryDy=0;strokeWidth=1;endFill=1;fontFamily=宋体;fontSize=10.5;" parent="1" source="IiCrrvJQZdERZgWnuMCt-13" target="fHgwsBmxxACwKIcdnnUg-6" edge="1">
          <mxGeometry width="50" height="50" relative="1" as="geometry">
            <mxPoint x="80" y="245" as="sourcePoint" />
            <mxPoint x="135" y="175" as="targetPoint" />
          </mxGeometry>
        </mxCell>
        <mxCell id="fHgwsBmxxACwKIcdnnUg-36" value="" style="endArrow=classicThin;html=1;rounded=0;exitX=1;exitY=0.5;exitDx=0;exitDy=0;entryX=0;entryY=0.5;entryDx=0;entryDy=0;strokeWidth=1;endFill=1;fontFamily=宋体;fontSize=10.5;" parent="1" source="IiCrrvJQZdERZgWnuMCt-13" target="fHgwsBmxxACwKIcdnnUg-7" edge="1">
          <mxGeometry width="50" height="50" relative="1" as="geometry">
            <mxPoint x="80" y="245" as="sourcePoint" />
            <mxPoint x="135" y="210" as="targetPoint" />
          </mxGeometry>
        </mxCell>
        <mxCell id="IiCrrvJQZdERZgWnuMCt-123" value="&lt;span style=&quot;color: rgb(0, 0, 0); font-size: 10.5px; font-style: normal; font-variant-ligatures: normal; font-variant-caps: normal; font-weight: 400; letter-spacing: normal; orphans: 2; text-align: center; text-indent: 0px; text-transform: none; widows: 2; word-spacing: 0px; -webkit-text-stroke-width: 0px; text-decoration-thickness: initial; text-decoration-style: initial; text-decoration-color: initial; float: none; display: inline !important;&quot;&gt;输出层`l_4`&lt;/span&gt;" style="text;html=1;fontSize=10.5;whiteSpace=wrap;fillColor=none;strokeColor=none;fontFamily=宋体;" parent="1" vertex="1">
          <mxGeometry x="350" y="60" width="45" height="22.5" as="geometry" />
        </mxCell>
        <mxCell id="IiCrrvJQZdERZgWnuMCt-117" value="&lt;span style=&quot;color: rgb(0, 0, 0); font-size: 10.5px; font-style: normal; font-variant-ligatures: normal; font-variant-caps: normal; font-weight: 400; letter-spacing: normal; orphans: 2; text-align: center; text-indent: 0px; text-transform: none; widows: 2; word-spacing: 0px; -webkit-text-stroke-width: 0px; text-decoration-thickness: initial; text-decoration-style: initial; text-decoration-color: initial; float: none; display: inline !important;&quot;&gt;隐藏层&lt;/span&gt;&lt;span style=&quot;font-size: 10.5px; text-align: center;&quot;&gt;`l_3`&lt;/span&gt;&lt;span style=&quot;font-family: &amp;quot;Times New Roman&amp;quot;; font-size: 10.5px; text-align: center;&quot;&gt;&amp;nbsp;&lt;/span&gt;" style="text;html=1;fontSize=10.5;whiteSpace=wrap;fillColor=none;strokeColor=none;fontFamily=宋体;" parent="1" vertex="1">
          <mxGeometry x="280" y="60" width="45" height="20" as="geometry" />
        </mxCell>
        <mxCell id="IiCrrvJQZdERZgWnuMCt-111" value="&lt;span style=&quot;color: rgb(0, 0, 0); font-size: 10.5px; font-style: normal; font-variant-ligatures: normal; font-variant-caps: normal; font-weight: 400; letter-spacing: normal; orphans: 2; text-align: center; text-indent: 0px; text-transform: none; widows: 2; word-spacing: 0px; -webkit-text-stroke-width: 0px; text-decoration-thickness: initial; text-decoration-style: initial; text-decoration-color: initial; float: none; display: inline !important;&quot;&gt;隐藏层`l_2`&lt;/span&gt;" style="text;html=1;fontSize=10.5;whiteSpace=wrap;fillColor=none;strokeColor=none;fontFamily=宋体;" parent="1" vertex="1">
          <mxGeometry x="200" y="60" width="45" height="20" as="geometry" />
        </mxCell>
        <mxCell id="fHgwsBmxxACwKIcdnnUg-11" value="&lt;span style=&quot;color: rgb(0, 0, 0); font-size: 10.5px; font-style: normal; font-variant-ligatures: normal; font-variant-caps: normal; font-weight: 400; letter-spacing: normal; orphans: 2; text-align: center; text-indent: 0px; text-transform: none; widows: 2; word-spacing: 0px; -webkit-text-stroke-width: 0px; text-decoration-thickness: initial; text-decoration-style: initial; text-decoration-color: initial; float: none; display: inline !important;&quot;&gt;隐藏层`l_1`&lt;/span&gt;" style="text;html=1;fontSize=10.5;whiteSpace=wrap;fillColor=none;strokeColor=none;fontFamily=宋体;" parent="1" vertex="1">
          <mxGeometry x="120" y="60" width="45" height="20" as="geometry" />
        </mxCell>
        <mxCell id="IiCrrvJQZdERZgWnuMCt-120" value="&lt;span style=&quot;color: rgb(0, 0, 0); font-size: 10.5px; font-style: normal; font-variant-ligatures: normal; font-variant-caps: normal; font-weight: 400; letter-spacing: normal; orphans: 2; text-align: center; text-indent: 0px; text-transform: none; widows: 2; word-spacing: 0px; -webkit-text-stroke-width: 0px; text-decoration-thickness: initial; text-decoration-style: initial; text-decoration-color: initial; float: none; display: inline !important;&quot;&gt;输入层`l_0`&lt;/span&gt;" style="text;html=1;fontSize=10.5;whiteSpace=wrap;fillColor=none;strokeColor=none;fontFamily=宋体;" parent="1" vertex="1">
          <mxGeometry x="40" y="60" width="45" height="20" as="geometry" />
        </mxCell>
        <mxCell id="K91qcmPxKpYHfVR-Bt22-2" value="&lt;i style=&quot;font-size: 9px;&quot;&gt;$$\sum_{i}{\mathbf{w}_{i}\mathbf{x}_{i}+\mathbf{b}}$$&lt;/i&gt;" style="text;html=1;strokeColor=none;fillColor=none;align=center;verticalAlign=middle;whiteSpace=wrap;rounded=0;fontSize=9;rotation=0;fontFamily=宋体;" parent="1" vertex="1">
          <mxGeometry x="294.5" y="255" width="58" height="27.5" as="geometry" />
        </mxCell>
        <mxCell id="IiCrrvJQZdERZgWnuMCt-132" value="&lt;i style=&quot;border-color: var(--border-color); font-size: 8px;&quot;&gt;$$\sigma \left(\sum_{i}{\mathbf{w}_{i}\mathbf{x}_{i}+\mathbf{b}} \right)$$&lt;/i&gt;" style="text;html=1;strokeColor=none;fillColor=none;align=center;verticalAlign=middle;whiteSpace=wrap;rounded=0;fontSize=8;fontFamily=宋体;" parent="1" vertex="1">
          <mxGeometry x="345" y="223.25" width="68" height="31.75" as="geometry" />
        </mxCell>
      </root>
    </mxGraphModel>
  </diagram>
</mxfile>
